<?xml version="1.0" encoding="UTF-8"?><svg id="uuid-6939522b-9de2-4591-aab9-37de762a00f4" xmlns="http://www.w3.org/2000/svg" viewBox="0 0 160 80"><defs><style>.uuid-64940a87-9b56-43cb-9983-e106a8486a89,.uuid-2ebe6729-1e16-421b-bace-4726a1b7b670,.uuid-5566c417-db66-46ea-88d2-032fe725439d{fill:#b27436;}.uuid-2ebe6729-1e16-421b-bace-4726a1b7b670{font-family:Poppins-Regular, Poppins;font-size:10px;}.uuid-5566c417-db66-46ea-88d2-032fe725439d{font-family:Poppins-Bold, Poppins;font-size:18px;font-weight:700;}</style></defs><text class="uuid-5566c417-db66-46ea-88d2-032fe725439d" transform="translate(48.41 42.13)"><tspan x="0" y="0">Bronze</tspan></text><text class="uuid-2ebe6729-1e16-421b-bace-4726a1b7b670" transform="translate(63.9 52.76)"><tspan x="0" y="0">Award</tspan></text><path class="uuid-64940a87-9b56-43cb-9983-e106a8486a89" d="m125.48,26.69c.22.3.55.52.94.69.39.17.87.25,1.39.25,1.03,0,2.01-.43,2.55-1.14-.46-.76-1.38-1.25-2.44-1.16-1.05.07-1.93.66-2.44,1.37Z"/><path class="uuid-64940a87-9b56-43cb-9983-e106a8486a89" d="m130.96,26.18c.89-.01,1.85-.48,2.41-1.44.28-.48.4-1.01.41-1.54.01-.54-.14-1.06-.39-1.52-.93.04-1.78.68-2.27,1.65-.48.97-.51,2.03-.15,2.85Z"/><path class="uuid-64940a87-9b56-43cb-9983-e106a8486a89" d="m127.22,30.84c.08.17.2.34.34.49.13.15.29.3.48.42.19.13.4.24.64.33.23.09.48.17.75.22,1.08.21,2.19,0,2.91-.63-.08-.22-.18-.43-.32-.63-.15-.19-.32-.37-.52-.52-.2-.15-.41-.28-.65-.38-.25-.1-.51-.17-.79-.2-1.11-.14-2.16.28-2.84.9Z"/><path class="uuid-64940a87-9b56-43cb-9983-e106a8486a89" d="m133.03,31.49c.94.18,2.04-.1,2.82-.97.2-.22.36-.46.49-.72.12-.26.21-.53.27-.81.06-.28.08-.57.07-.85-.02-.28-.07-.56-.16-.83-.98-.16-2.01.32-2.72,1.23-.18.23-.33.47-.44.71-.12.25-.22.5-.28.75-.07.25-.1.5-.11.75,0,.25,0,.49.05.73Z"/><path class="uuid-64940a87-9b56-43cb-9983-e106a8486a89" d="m128.07,35.19c.2.78.9,1.52,1.98,1.98,1.08.45,2.29.47,3.16-.02-.07-.49-.27-.97-.62-1.37-.35-.4-.8-.73-1.37-.92-1.13-.38-2.31-.16-3.15.33Z"/><path class="uuid-64940a87-9b56-43cb-9983-e106a8486a89" d="m133.97,37.1c.94.39,2.14.35,3.14-.39,1.01-.74,1.52-2.01,1.39-3.21-.99-.38-2.16-.09-3.08.7-.46.4-.83.87-1.07,1.37-.23.5-.38,1.02-.37,1.53Z"/><path class="uuid-64940a87-9b56-43cb-9983-e106a8486a89" d="m128.03,39.58c.02.21.05.42.12.64.07.21.19.43.33.64.26.42.66.82,1.18,1.17,1.01.69,2.24.98,3.28.66.03-.26,0-.53-.06-.79-.06-.26-.15-.52-.29-.76-.28-.49-.69-.92-1.22-1.24-1.09-.63-2.36-.65-3.33-.32Z"/><path class="uuid-64940a87-9b56-43cb-9983-e106a8486a89" d="m133.73,42.8c.87.61,2.13.82,3.34.27.59-.28,1.09-.72,1.47-1.25.18-.27.32-.56.44-.86.11-.3.2-.62.22-.94-.95-.61-2.22-.55-3.34.08-.58.32-1.05.73-1.4,1.19-.18.23-.34.47-.46.73-.12.25-.2.51-.26.77Z"/><path class="uuid-64940a87-9b56-43cb-9983-e106a8486a89" d="m127.14,43.8c-.04.22-.04.44,0,.67.02.12.04.24.08.36.03.12.07.24.12.36.19.48.53.99.97,1.45.9.93,2.11,1.5,3.24,1.39.17-.52.14-1.12-.02-1.68-.08-.28-.22-.56-.39-.81-.17-.26-.38-.5-.62-.72-.48-.44-1.07-.73-1.65-.89-.59-.16-1.18-.2-1.72-.13Z"/><path class="uuid-64940a87-9b56-43cb-9983-e106a8486a89" d="m132.32,48.33c.78.82,2.02,1.32,3.38,1,.69-.15,1.29-.51,1.79-.99.12-.12.24-.25.35-.38.1-.14.2-.28.29-.42.18-.29.32-.61.43-.93-.42-.41-.97-.68-1.57-.78-.6-.1-1.24-.05-1.91.16-.33.1-.64.24-.92.4-.28.16-.53.35-.78.54-.48.4-.82.88-1.07,1.4Z"/><path class="uuid-64940a87-9b56-43cb-9983-e106a8486a89" d="m125.43,47.7c-.08.21-.13.44-.14.69,0,.06,0,.12,0,.19,0,.06,0,.12,0,.19,0,.13.02.26.05.39.05.27.14.55.25.83.11.28.26.57.44.86.73,1.15,1.85,2,3.03,2.14.14-.26.24-.53.3-.82.05-.3.06-.6.04-.91-.05-.61-.3-1.24-.71-1.79-.41-.55-.94-.97-1.51-1.26-.57-.29-1.17-.45-1.74-.51Z"/><path class="uuid-64940a87-9b56-43cb-9983-e106a8486a89" d="m129.8,53.45c.62,1.02,1.79,1.8,3.26,1.77.37,0,.73-.07,1.08-.17.34-.11.67-.27.98-.46.15-.1.3-.2.44-.32.07-.06.14-.12.21-.18.07-.06.13-.13.19-.2.24-.27.46-.57.64-.88-.34-.52-.85-.9-1.44-1.13-.59-.23-1.28-.31-2-.24-.73.07-1.37.3-1.95.61-.29.16-.55.34-.77.55-.24.2-.45.42-.62.66Z"/><path class="uuid-64940a87-9b56-43cb-9983-e106a8486a89" d="m123,51.11c-.13.2-.22.42-.28.67-.06.25-.11.51-.11.79,0,.28.03.59.08.9.05.31.14.64.27.97.5,1.34,1.47,2.46,2.65,2.85.19-.23.36-.5.48-.78.12-.29.19-.6.23-.92.03-.32.03-.65-.03-.98-.06-.34-.17-.67-.32-1-.62-1.31-1.82-2.15-2.97-2.5Z"/><path class="uuid-64940a87-9b56-43cb-9983-e106a8486a89" d="m126.28,57.95c.42,1.18,1.45,2.24,2.96,2.51.38.07.76.08,1.15.05.39-.03.75-.13,1.11-.27.36-.14.71-.31,1.02-.54.31-.23.59-.49.84-.78-.48-1.21-1.74-1.99-3.25-2.14-.38-.04-.75-.03-1.1,0-.35.04-.71.1-1.03.21-.33.1-.63.24-.91.39-.29.15-.55.34-.78.55Z"/><path class="uuid-64940a87-9b56-43cb-9983-e106a8486a89" d="m128.85,23.32c.08-.21.14-.43.16-.66.02-.23.02-.48-.03-.71-.05-.24-.12-.48-.23-.72-.11-.24-.25-.47-.43-.68-.18-.21-.38-.39-.59-.55-.11-.08-.21-.15-.32-.21-.11-.06-.23-.11-.34-.15-.46-.17-.94-.21-1.37-.13-.09.44-.08.91.04,1.36.03.11.07.22.11.33.04.11.09.22.14.33.11.22.24.42.41.61.17.19.34.36.53.51.19.15.39.27.61.37.22.09.43.17.65.22.22.05.45.07.67.07Z"/><path class="uuid-64940a87-9b56-43cb-9983-e106a8486a89" d="m26.62,21.68c-.25.46-.4.98-.39,1.52,0,.54.13,1.06.41,1.54.56.96,1.51,1.43,2.41,1.44.36-.82.32-1.88-.15-2.85-.49-.97-1.34-1.61-2.27-1.65Z"/><path class="uuid-64940a87-9b56-43cb-9983-e106a8486a89" d="m29.64,26.49c.55.72,1.52,1.14,2.55,1.14.52,0,1-.08,1.39-.25.38-.17.72-.4.94-.69-.51-.71-1.4-1.29-2.44-1.37-1.05-.08-1.98.41-2.44,1.16Z"/><path class="uuid-64940a87-9b56-43cb-9983-e106a8486a89" d="m23.47,27.31c-.08.27-.14.55-.16.83,0,.29.01.57.07.85.06.28.15.55.27.81.13.26.3.5.49.72.79.87,1.88,1.15,2.82.97.05-.23.06-.48.05-.73,0-.25-.04-.5-.11-.75-.06-.25-.16-.51-.28-.75-.12-.24-.26-.48-.44-.71-.71-.91-1.74-1.39-2.72-1.23Z"/><path class="uuid-64940a87-9b56-43cb-9983-e106a8486a89" d="m27.66,31.67c.72.63,1.83.84,2.91.63.27-.05.52-.13.75-.22.24-.09.45-.2.64-.33.19-.13.35-.27.48-.42.14-.15.26-.31.34-.49-.68-.62-1.73-1.05-2.84-.9-.28.04-.54.11-.79.2-.24.1-.46.23-.65.38-.2.15-.37.33-.52.52-.14.19-.25.41-.32.63Z"/><path class="uuid-64940a87-9b56-43cb-9983-e106a8486a89" d="m21.51,33.51c-.13,1.2.38,2.47,1.39,3.21,1,.74,2.2.79,3.14.39,0-.51-.15-1.03-.37-1.53-.24-.5-.61-.97-1.07-1.37-.93-.8-2.1-1.08-3.08-.7Z"/><path class="uuid-64940a87-9b56-43cb-9983-e106a8486a89" d="m26.79,37.15c.88.49,2.08.47,3.16.02,1.08-.46,1.78-1.19,1.98-1.98-.84-.5-2.02-.72-3.15-.33-.57.19-1.02.51-1.37.92-.36.4-.55.88-.62,1.37Z"/><path class="uuid-64940a87-9b56-43cb-9983-e106a8486a89" d="m20.81,40.02c.02.32.11.63.22.94.11.3.26.59.44.86.38.53.88.97,1.47,1.25,1.21.55,2.46.34,3.34-.27-.06-.26-.14-.52-.26-.77-.12-.25-.28-.49-.46-.73-.35-.46-.82-.88-1.4-1.19-1.12-.63-2.39-.69-3.34-.08Z"/><path class="uuid-64940a87-9b56-43cb-9983-e106a8486a89" d="m27.06,42.68c1.03.32,2.27.03,3.28-.66.52-.35.92-.75,1.18-1.17.14-.21.25-.42.33-.64.08-.21.1-.43.12-.64-.97-.33-2.24-.32-3.33.32-.53.31-.95.75-1.22,1.24-.14.24-.23.5-.29.76-.06.26-.09.53-.06.79Z"/><path class="uuid-64940a87-9b56-43cb-9983-e106a8486a89" d="m21.44,46.61c.11.32.25.64.43.93.09.15.19.29.29.42.11.13.23.26.35.38.5.48,1.1.83,1.79.99,1.37.31,2.61-.18,3.38-1-.25-.51-.59-1-1.07-1.4-.24-.2-.49-.39-.78-.54-.28-.16-.59-.29-.92-.4-.66-.2-1.31-.26-1.91-.16-.6.1-1.15.36-1.57.78Z"/><path class="uuid-64940a87-9b56-43cb-9983-e106a8486a89" d="m28.47,48.04c1.13.1,2.34-.46,3.24-1.39.44-.46.78-.97.97-1.45.05-.12.08-.24.12-.36.04-.12.06-.24.08-.36.04-.23.03-.46,0-.67-.54-.07-1.13-.03-1.72.13-.58.16-1.17.45-1.65.89-.24.22-.45.46-.62.72-.17.26-.31.54-.39.81-.16.56-.19,1.15-.02,1.68Z"/><path class="uuid-64940a87-9b56-43cb-9983-e106a8486a89" d="m23.4,53.01c.18.32.39.61.64.88.06.07.12.13.19.2.07.06.14.12.21.18.14.12.29.22.44.32.31.19.64.35.98.46.35.11.71.17,1.08.17,1.47.04,2.64-.75,3.26-1.77-.17-.24-.39-.46-.62-.66-.23-.21-.49-.39-.77-.55-.58-.31-1.22-.54-1.95-.61-.72-.07-1.41,0-2,.24-.59.23-1.1.62-1.44,1.13Z"/><path class="uuid-64940a87-9b56-43cb-9983-e106a8486a89" d="m30.95,52.98c1.18-.14,2.3-.99,3.03-2.14.18-.29.33-.58.44-.86.12-.29.2-.57.25-.83.02-.13.04-.26.05-.39,0-.06,0-.13,0-.19,0-.06,0-.13,0-.19,0-.25-.06-.48-.14-.69-.58.05-1.17.21-1.74.51-.57.29-1.1.71-1.51,1.26-.41.55-.66,1.18-.71,1.79-.03.31-.02.61.04.91.06.29.16.57.3.82Z"/><path class="uuid-64940a87-9b56-43cb-9983-e106a8486a89" d="m26.64,58.93c.25.29.53.55.84.78.31.22.66.4,1.02.54.36.13.72.24,1.11.27.38.03.77.02,1.15-.05,1.52-.28,2.54-1.33,2.96-2.51-.23-.21-.49-.4-.78-.55-.29-.16-.59-.29-.91-.39-.32-.1-.68-.16-1.03-.21-.35-.04-.72-.05-1.1,0-1.51.15-2.77.92-3.25,2.14Z"/><path class="uuid-64940a87-9b56-43cb-9983-e106a8486a89" d="m34.39,57.3c1.18-.39,2.14-1.51,2.65-2.85.13-.33.21-.66.27-.97.05-.31.09-.62.08-.9,0-.29-.05-.55-.11-.79-.06-.25-.15-.47-.28-.67-1.15.35-2.36,1.19-2.97,2.5-.15.33-.26.66-.32,1-.06.34-.06.66-.03.98.04.32.11.64.23.92.13.28.29.55.48.78Z"/><path class="uuid-64940a87-9b56-43cb-9983-e106a8486a89" d="m31.15,23.32c.22,0,.45-.02.67-.07.22-.05.43-.13.65-.22.21-.1.42-.22.61-.37.19-.15.36-.32.53-.51.16-.19.3-.4.41-.61.05-.11.1-.22.14-.33.04-.11.08-.22.11-.33.12-.45.14-.92.04-1.36-.43-.09-.91-.04-1.37.13-.12.04-.23.09-.34.15-.11.06-.22.13-.32.21-.21.15-.41.34-.59.55-.18.21-.32.44-.43.68-.11.24-.19.48-.23.72-.05.24-.05.48-.03.71.02.23.08.46.16.66Z"/></svg>