<?xml version="1.0" encoding="utf-8"?>
<!-- Generator: Adobe Illustrator 27.5.0, SVG Export Plug-In . SVG Version: 6.00 Build 0)  -->
<svg version="1.1" id="圖層_1" xmlns="http://www.w3.org/2000/svg" xmlns:xlink="http://www.w3.org/1999/xlink" x="0px" y="0px"
	 viewBox="0 0 32 52" style="enable-background:new 0 0 32 52;" xml:space="preserve">
<style type="text/css">
	.st0{fill:#082F7E;}
</style>
<g>
	<path class="st0" d="M4,20c-2.2,0-4,1.8-4,4v24c0,2.2,1.8,4,4,4s4-1.8,4-4V24C8,21.8,6.2,20,4,20z"/>
	<path class="st0" d="M6.8,1.2L1.2,6.8c-1.6,1.6-1.6,4.1,0,5.7s4.1,1.6,5.7,0l5.7-5.7c1.6-1.6,1.6-4.1,0-5.7
		C10.9-0.4,8.4-0.4,6.8,1.2z"/>
	<path class="st0" d="M20,28h8c2.2,0,4-1.8,4-4s-1.8-4-4-4h-8c-2.2,0-4,1.8-4,4S17.8,28,20,28z"/>
	<path class="st0" d="M28,36h-8c-2.2,0-4,1.8-4,4s1.8,4,4,4h8c2.2,0,4-1.8,4-4S30.2,36,28,36z"/>
</g>
</svg>
