<?xml version="1.0" encoding="utf-8"?>
<!-- Generator: Adobe Illustrator 27.6.1, SVG Export Plug-In . SVG Version: 6.00 Build 0)  -->
<svg version="1.1" id="uuid-1e9df814-8cd2-4531-b930-a1afb6f8f047"
	 xmlns="http://www.w3.org/2000/svg" xmlns:xlink="http://www.w3.org/1999/xlink" x="0px" y="0px" viewBox="0 0 168 72"
	 style="enable-background:new 0 0 168 72;" xml:space="preserve">
<style type="text/css">
	.st0{enable-background:new    ;}
	.st1{fill:#CCAC1A;}
</style>
<g>
	<g class="st0">
		<path class="st1" d="M68.9,24.2c-0.5-1.1-1.1-1.5-1.8-1.8c-1.1-0.5-1.9-0.6-2.8-0.6c-1.2,0-2.2,0.5-3.2,0.6
			c-1.1,0.5-1.5,1.2-2.2,2.2c-0.6,1.1-0.6,2.2-0.6,3.4s0.5,2.5,0.6,3.4c0.6,1.1,1.2,1.5,2.2,2.2c1.1,0.6,1.8,0.6,3.2,0.6
			c1.5,0,2.8-0.5,3.9-1.2c1.1-1.1,1.5-2.2,1.9-3.4h-6.6V27h9.6v2.2c-0.5,1.2-0.6,2.5-1.5,3.9c-0.6,1.2-1.8,2.2-3.2,2.8
			c-1.4,0.6-2.5,1.1-4,1.1c-1.5,0-3.2-0.5-4.5-1.2c-1.2-0.6-2.5-1.8-3.2-3.2c-1.1-1.2-1.2-2.8-1.2-4.6s0.5-3.2,1.2-4.6
			c1.1-1.2,1.9-2.5,3.2-3.2c1.2-0.6,2.8-1.2,4.5-1.2c1.9,0,3.4,0.5,5.1,1.2c1.5,1.1,2.5,2.2,3.2,3.9H69v0.5H68.9z"/>
		<path class="st1" d="M78.4,35.6c-1.1-0.6-1.8-1.5-2.5-2.5c-0.6-1.1-1.1-2.2-1.1-3.9c0-1.2,0.5-2.5,1.1-3.9
			c0.6-1.2,1.5-1.9,2.5-2.5c1.1-0.5,2.2-0.6,3.4-0.6c1.2,0,2.5,0.5,3.4,1.1c1.1,0.6,1.9,1.5,2.5,2.5c0.5,1.1,0.9,2.3,0.9,3.9
			s-0.5,2.5-1.1,3.9c-0.6,1.1-1.5,1.8-2.5,2.5c-0.9,0.6-2.2,1.1-3.9,1.1C80.5,36.7,79.2,36.2,78.4,35.6z M83.5,33.8
			c0.6-0.5,1.2-1.1,1.5-1.5c0.5-0.6,0.6-1.5,0.6-2.5s-0.5-1.9-0.6-2.5c-0.5-1.1-0.6-1.5-1.2-1.9c-0.6-0.5-1.2-0.6-2.2-0.6
			c-0.6,0-1.5,0.5-2.2,0.6c-0.6,0.5-1.2,1.1-1.5,1.5c0,0.6-0.5,1.5-0.5,2.5c0,1.5,0.5,2.5,1.2,3.4c0.6,1.1,1.5,1.2,2.8,1.2
			C82.5,34.1,82.9,34.1,83.5,33.8z"/>
		<path class="st1" d="M94.6,17.7v18.5h-2.8V17.7C91.9,17.7,94.6,17.7,94.6,17.7z"/>
		<path class="st1" d="M98.2,25.6c0.6-1.1,1.2-1.9,2.5-2.5c0.6-0.5,1.8-0.6,3.2-0.6c1.1,0,1.8,0.5,2.8,0.6c1.1,0.5,1.5,1.1,2.2,1.5
			v-7.1h2.9v18.5H109v-2.2c-0.5,0.6-1.2,1.2-1.8,1.5c-1.1,0.5-1.8,0.6-2.8,0.6c-1.2,0-2.2-0.5-3.4-1.1c-1.1-0.6-1.8-1.5-2.5-2.5
			c-0.6-1.1-1.1-2.2-1.1-3.9C97.4,28.2,97.6,27,98.2,25.6z M108,27c-0.5-0.6-1.1-1.2-1.5-1.5s-1.2-0.6-2.2-0.6
			c-0.6,0-1.5,0.5-2.2,0.6c-0.6,0.5-1.2,1.1-1.5,1.5c-0.3,0.5-0.6,1.5-0.6,2.5c0,1.1,0.5,1.9,0.6,2.5c0.5,0.6,1.1,1.2,1.5,1.5
			c0.6,0.5,1.2,0.6,2.2,0.6c0.6,0,1.5-0.5,2.2-0.6c0.6-0.5,1.2-1.1,1.5-1.5c0.5-0.6,0.6-1.5,0.6-2.5C108.7,28.4,108.2,27.8,108,27z"
			/>
	</g>
	<g class="st0">
		<path class="st1" d="M55.5,51.6h-7.2L47,55h-3.1l6.2-17.4h3.4L59.6,55h-3.2L55.5,51.6z M54.6,49.5l-2.8-8.2L49,49.5H54.6z"/>
		<path class="st1" d="M80.8,41.2L76.3,55h-3.1l-2.8-10.5L67.7,55h-3.2l-3.9-13.9h2.8l2.8,11.1l2.8-11.1h3.2l2.8,11.1l2.8-11.1
			C77.8,41.2,80.8,41.2,80.8,41.2z"/>
		<path class="st1" d="M82.9,44.4c0.6-1.1,1.2-1.9,2.5-2.5c1.1-0.6,2.2-1.1,3.4-1.1c1.1,0,1.8,0.5,2.8,0.6c1.1,0.5,1.5,1.1,1.9,1.5
			v-1.9h2.8V55h-3.2v-2.2c-0.6,0.6-1.2,1.2-1.8,1.5c-0.6,0.5-1.9,0.6-2.8,0.6c-1.2,0-2.2-0.5-3.2-1.1c-1.1-0.6-1.8-1.5-2.2-2.5
			c-0.6-1.1-1.1-2.2-1.1-3.9C82,46.9,82.5,45.6,82.9,44.4z M92.6,45.6c-0.5-0.6-1.1-1.2-1.5-1.5c-0.6-0.5-1.2-0.6-2.2-0.6
			c-0.6,0-1.5,0.5-2.2,0.6c-0.6,0.5-1.2,1.1-1.5,1.5c-0.5,0.6-0.6,1.5-0.6,2.5c0,1.1,0.5,1.8,0.6,2.5c0.5,0.6,1.1,1.2,1.5,1.5
			c0.6,0.5,1.2,0.6,2.2,0.6c0.6,0,1.5-0.5,2.2-0.6c0.6-0.5,1.2-1.1,1.5-1.5c0.5-0.6,0.6-1.5,0.6-2.5C93.2,47.2,93.2,46.7,92.6,45.6z
			"/>
		<path class="st1" d="M104.7,42.1c0.6-0.5,1.5-0.6,2.5-0.6v2.8h-0.6c-1.2,0-1.8,0.5-2.5,1.1s-1.1,1.5-1.1,2.8v7.2h-2.8V41.5h2.8
			v1.9C103.3,42.9,104,42.2,104.7,42.1z"/>
		<path class="st1" d="M109.7,44.4c0.6-1.1,1.2-1.9,2.5-2.5c1.1-0.6,2.2-1.1,3.4-1.1c1.1,0,1.8,0.5,2.8,0.6c1.1,0.5,1.5,1.1,2.2,1.5
			v-6.6h2.8v18.5h-2.8v-2c-0.5,0.6-1.2,1.2-1.8,1.5c-1.1,0.5-1.8,0.6-2.8,0.6c-1.2,0-2.2-0.5-3.4-1.1c-1.1-0.6-1.8-1.5-2.5-2.5
			c-0.6-1.1-1.1-2.2-1.1-3.9C108.7,46.9,109.1,45.6,109.7,44.4z M119.3,45.6c-0.5-0.6-1.1-1.2-1.5-1.5c-0.6-0.5-1.2-0.6-2.2-0.6
			c-0.6,0-1.5,0.5-2.2,0.6c-0.6,0.5-1.2,1.1-1.5,1.5c-0.5,0.6-0.6,1.5-0.6,2.5c0,1.1,0.5,1.8,0.6,2.5c0.5,0.6,1.1,1.2,1.5,1.5
			c0.6,0.5,1.2,0.6,2.2,0.6c0.6,0,1.5-0.5,2.2-0.6c0.6-0.5,1.2-1.1,1.5-1.5c0.5-0.6,0.6-1.5,0.6-2.5
			C119.9,47.2,119.9,46.7,119.3,45.6z"/>
	</g>
	<path class="st1" d="M136.6,15.4c0.5,0.6,1.1,1.1,1.5,1.1c0.6,0.2,1.2,0.2,2.2,0.2c1.5,0,3.2-0.6,4-1.8c-1.1-1.1-2.5-1.5-4-1.5
		C138.7,13.4,137.2,14.3,136.6,15.4z"/>
	<path class="st1" d="M144.9,14.8c1.2,0,2.8-0.6,3.9-2.2c0.5-0.6,0.6-1.5,0.6-2.5c0-1.1-0.5-1.5-0.6-2.5c-1.5,0-2.8,1.1-3.4,2.5
		C144.4,11.6,144.4,13.1,144.9,14.8L144.9,14.8z"/>
	<path class="st1" d="M138.9,22c0,0.5,0.5,0.6,0.6,0.6c0.5,0.5,0.6,0.6,0.6,0.6s0.6,0.5,1.1,0.6c0.5,0.5,0.6,0.5,1.2,0.5
		c1.5,0.5,3.4,0,4.6-1.1c0-0.5-0.5-0.6-0.6-1.1c-0.5-0.5-0.6-0.6-1.1-1.1s-0.6-0.5-1.1-0.6S143.7,20,143,20
		C141.8,20.4,140.4,21,138.9,22z"/>
	<path class="st1" d="M148.4,22.8c1.5,0.5,3.2-0.5,4.5-1.5c0.5-0.5,0.6-0.6,0.6-1.2c0.5-0.5,0.5-1.1,0.5-1.2s0-1.1,0-1.2
		s0-1.1-0.5-1.2c-1.5-0.5-3.2,0.6-4.5,1.9c-0.5,0.5-0.6,0.6-0.6,1.2c-0.2,0.5-0.2,0.6-0.2,1.2c0,0.6-0.5,0.6-0.5,1.2
		C148.1,22.2,148.1,22.5,148.4,22.8L148.4,22.8z"/>
	<path class="st1" d="M140.6,28.8c0.5,1.2,1.2,2.5,3.2,3.2c1.5,0.6,3.4,0.6,5.1,0c0-0.6-0.5-1.5-1.1-2.2c-0.6-0.6-1.2-1.2-2.2-1.5
		C143.8,27.6,141.8,27.8,140.6,28.8L140.6,28.8z"/>
	<path class="st1" d="M149.5,31.6c1.5,0.6,3.4,0.6,5.1-0.6c1.5-1.2,2.5-3.2,2.2-5.1c-1.5-0.6-3.4-0.5-4.6,1.1
		c-0.6,0.6-1.2,1.2-1.5,2.2C150,30.1,149.5,31,149.5,31.6L149.5,31.6z"/>
	<path class="st1" d="M140.6,35.6c0,0.5,0,0.6,0.5,1.1c0.5,0.5,0.5,0.6,0.6,1.1c0.5,0.6,1.1,1.2,1.8,1.9c1.5,1.1,3.4,1.5,5.1,1.1
		c0-0.5,0-1.1,0-1.2c0-0.5-0.5-1.1-0.5-1.2c-0.5-0.6-1.1-1.5-1.8-1.9C144,35,141.8,35,140.6,35.6z"/>
	<path class="st1" d="M149.4,40.7c1.2,1.1,3.4,1.2,5.4,0.5c1.1-0.5,1.8-1.2,2.2-1.9c0.5-0.5,0.6-1.1,0.6-1.2
		c0.5-0.6,0.5-1.1,0.5-1.5c-1.5-1.1-3.4-1.1-5.4,0c-1.1,0.6-1.5,1.2-2.2,1.8c-0.5,0.5-0.6,0.6-0.6,1.2
		C149.5,39.8,149.4,40.4,149.4,40.7L149.4,40.7z"/>
	<path class="st1" d="M138.9,42.2c0,0.5,0,0.6,0,1.1s0,0.5,0,0.6c0,0.5,0,0.5,0.5,0.6c0.5,0.6,1.1,1.5,1.5,2.2
		c1.2,1.5,3.4,2.2,5.1,2.2c0.5-1.1,0.5-1.9,0-2.5c0-0.5-0.5-1.1-0.6-1.2c-0.2-0.2-0.6-0.6-1.1-1.2c-0.6-0.6-1.5-1.2-2.5-1.2
		C140.9,42.2,140,42.1,138.9,42.2L138.9,42.2z"/>
	<path class="st1" d="M147.2,49c1.2,1.2,3.2,2.2,5.4,1.5c1.1-0.5,1.8-0.6,2.8-1.5c0.5-0.5,0.5-0.5,0.6-0.6c0.5-0.5,0.5-0.5,0.6-0.6
		c0.5-0.6,0.6-1.1,0.6-1.5c-0.6-0.6-1.5-1.1-2.5-1.2c-1.1-0.5-1.8,0-2.8,0.5c-0.6,0.5-1.1,0.5-1.5,0.6c-0.5,0.5-1.1,0.6-1.2,1.1
		C148.1,47.6,147.5,48.4,147.2,49L147.2,49z"/>
	<path class="st1" d="M136.6,48.3c0,0.5-0.5,0.6-0.5,1.1v0.5v0.5c0,0.5,0,0.5,0,0.6c0,0.5,0.5,1.1,0.5,1.2c0.5,0.5,0.5,1.1,0.6,1.2
		c1.2,1.8,2.8,3.2,4.6,3.4c0.5-0.5,0.5-1.1,0.6-1.2c0-0.6,0-1.1,0-1.2c0-1.1-0.6-1.9-1.2-2.8c-0.6-0.9-1.5-1.5-2.5-1.9
		C138.1,48.4,137.2,48.4,136.6,48.3L136.6,48.3z"/>
	<path class="st1" d="M143.2,57.4c1.1,1.5,2.8,2.8,5.1,2.8c0.6,0,1.2,0,1.5-0.5c0.6-0.5,1.1-0.5,1.5-0.6c0.5-0.5,0.6-0.5,0.6-0.6
		l0.5-0.5l0.5-0.5c0.5-0.5,0.6-1.1,1.1-1.2c-0.6-1.1-1.2-1.2-2.2-1.9c-0.9-0.6-1.8-0.6-3.2-0.5c-1.2,0.5-2.2,0.6-3.2,1.1
		c-0.5,0.5-1.1,0.6-1.2,1.1C143.4,56.7,143.4,56.9,143.2,57.4L143.2,57.4z"/>
	<path class="st1" d="M132.6,53.5c-0.5,0.5-0.5,0.6-0.5,1.1s-0.5,0.6-0.5,1.2c0,0.5,0,1.1,0,1.2c0,0.6,0.5,1.1,0.5,1.5
		c0.6,2.2,2.2,3.9,4,4.5c0.5-0.5,0.6-0.6,0.6-1.2c0-0.6,0.5-1.1,0.5-1.5s0-1.1,0-1.5c0-0.5-0.5-1.1-0.6-1.5
		C136.1,55.5,134.4,54.1,132.6,53.5L132.6,53.5z"/>
	<path class="st1" d="M137.8,64.1c0.6,1.8,2.2,3.4,4.6,4c0.6,0,1.2,0,1.9,0s1.2-0.5,1.8-0.5c0.6-0.5,1.1-0.6,1.5-1.1
		c0.6-0.5,1.1-0.6,1.2-1.2c-0.6-1.8-2.8-3.2-5.1-3.4c-0.6,0-1.2,0-1.8,0c-0.6,0-0.8,0.6-1.4,0.6c-0.6,0.5-1.1,0.5-1.5,0.6
		C138.4,63.5,138.1,63.8,137.8,64.1L137.8,64.1z"/>
	<path class="st1" d="M141.8,10c0-0.5,0.5-0.6,0.5-1.1c0-0.5,0-0.6,0-1.2s-0.5-0.6-0.6-1.1c-0.5-0.5-0.5-0.6-0.6-1.1
		c-0.2-0.5-0.6-0.6-1.1-1.1c-0.5,0-0.5-0.5-0.6-0.5c-0.5,0-0.5-0.5-0.6-0.5c-0.6,0-1.5,0-2.2,0c-0.5,0.6,0,1.5,0,2.2
		c0,0.5,0,0.5,0.5,0.6c0.5,0,0.5,0.5,0.5,0.6c0.5,0.5,0.5,0.6,0.6,1.1c0.2,0.5,0.6,0.6,1.1,1.1s0.6,0.5,1.1,0.6c0.5,0,0.6,0,1.1,0
		C140.9,10,141.2,10.3,141.8,10L141.8,10z"/>
	<path class="st1" d="M19.2,7.6c-0.6,0.6-0.6,1.5-0.6,2.5c0,0.9,0.5,1.5,0.6,2.5c1.1,1.2,2.2,2.2,3.9,2.2c0.6-1.2,0.5-3.2-0.5-4.6
		C22,8.3,20.5,7.6,19.2,7.6L19.2,7.6z"/>
	<path class="st1" d="M23.9,15c0.6,1.2,2.2,1.8,4,1.8c1.1,0,1.5,0,2.2-0.5c0.6-0.5,1.2-0.6,1.5-1.1c-1.1-1.2-2.5-2.2-4-2.5
		C26,13.1,24.5,13.7,23.9,15z"/>
	<path class="st1" d="M14.2,16.3c0,0.2-0.5,0.8-0.5,1.2c0,0.5,0,1.1,0,1.2s0.5,1.1,0.5,1.2c0.6,0.6,1.1,1.1,1.1,1.2
		c1.2,1.5,3.2,1.8,4.6,1.5c0-0.5,0-0.6,0-1.2s0-0.6,0-1.2s-0.5-0.6-0.6-1.1c-0.5-0.5-0.5-0.6-0.6-1.2C17.2,17,15.6,16,14.2,16.3
		L14.2,16.3z"/>
	<path class="st1" d="M20.6,23.1c1.2,1.1,2.8,1.2,4.6,1.1c0.5,0,1.1-0.5,1.2-0.5c0.5-0.5,0.6-0.5,1.1-0.6c0,0,0.5-0.5,0.6-0.6
		c0.3-0.3,0.3-0.5,0.5-0.5c-1.2-1.1-2.8-1.5-4.6-1.2c-0.5,0-1.1,0.5-1.2,0.5c-0.5,0-0.6,0.5-1.1,0.5c-0.5,0.5-0.6,0.6-0.6,1.1
		C21.1,22.5,20.6,22.8,20.6,23.1z"/>
	<path class="st1" d="M11.1,26.1c-0.5,1.7,0.5,3.7,2.2,4.9s3.4,1.2,5.1,0.6c0-0.6-0.5-1.5-0.6-2.5c-0.5-0.6-1.1-1.2-1.5-1.9
		C14.5,26.1,12.6,25.4,11.1,26.1L11.1,26.1z"/>
	<path class="st1" d="M19.4,31.6c1.2,0.6,3.2,0.6,5.1,0c1.5-0.6,2.8-1.9,3.2-3.2c-1.2-0.6-3.2-1.2-5.1-0.6c-1.1,0.6-1.5,1.1-2.2,1.5
		C19.9,30.1,19.4,31,19.4,31.6L19.4,31.6z"/>
	<path class="st1" d="M10,36.2c0,0.6,0,1.1,0.5,1.5c0.5,0.5,0.5,1.1,0.6,1.2c0.6,1.1,1.2,1.5,2.2,1.8c1.8,1.1,3.9,0.6,5.4-0.5
		c0-0.5-0.5-1.1-0.5-1.2c0-0.5-0.6-1.1-1.1-1.2c-0.6-0.6-1.2-1.2-2.2-1.9C13.4,35.5,11.2,35.5,10,36.2L10,36.2z"/>
	<path class="st1" d="M19.9,40.4c1.5,0.6,3.4,0,5.1-1.1c1.1-0.6,1.5-1.2,1.9-1.9c0.5-0.5,0.5-0.6,0.6-1.1c0-0.5,0-0.6,0.5-1.1
		c-1.5-0.6-3.9-0.6-5.4,0.5c-1.1,0.6-1.5,1.2-1.9,1.9c-0.5,0.5-0.5,0.6-0.5,1.2S19.9,40.1,19.9,40.4z"/>
	<path class="st1" d="M11.1,46.7c0,0.6,0.5,1.1,0.6,1.5c0,0.5,0.5,0.5,0.6,0.6c0,0.5,0.5,0.5,0.6,0.6c0.6,0.6,1.5,1.2,2.6,1.2
		c2.2,0.6,4-0.5,5.4-1.5c-0.5-1.1-1.1-1.5-1.5-2.2c-0.5-0.5-0.6-0.6-1.2-1.1c-0.5-0.5-1.1-0.6-1.5-0.6c-1.1-0.5-2.2-0.5-3.2-0.5
		C12.6,45.5,11.5,46.1,11.1,46.7L11.1,46.7z"/>
	<path class="st1" d="M22,48.9c1.8,0.5,3.9-0.6,5.1-2.2c0.6-0.6,1.2-1.5,1.5-2.2c0-0.5,0-0.5,0.5-0.6c0.5-0.5,0-0.5,0-0.6
		s0-0.6,0-1.1c-1.1,0-1.9,0-2.8,0.5c-1.1,0.5-1.9,0.6-2.5,1.2c-0.5,0.5-0.6,0.6-1.1,1.2c-0.5,0.5-0.6,1.1-0.6,1.2
		C21.6,46.9,21.6,47.8,22,48.9L22,48.9z"/>
	<path class="st1" d="M14.2,56.7c0.5,0.5,0.6,1.1,1.1,1.2l0.5,0.5l0.5,0.5c0.5,0.5,0.6,0.5,0.6,0.6c0.6,0.5,1.1,0.6,1.5,0.6
		c0.6,0,1.1,0.5,1.5,0.5c2.2,0,4-1.2,5.1-2.8c0-0.5-0.5-0.6-1.1-1.1c-0.5-0.5-0.6-0.6-1.2-1.1c-1.1-0.8-1.8-1.2-3.2-1.2
		c-1.2,0-2.2,0-3.2,0.5C15.4,55,14.5,55.7,14.2,56.7L14.2,56.7z"/>
	<path class="st1" d="M25.6,56.7c1.9-0.5,3.9-1.5,4.6-3.4c0.5-0.5,0.6-1.1,0.6-1.2s0.5-1.1,0.5-1.2c0-0.2,0-0.5,0-0.6v-0.5v-0.5
		c0-0.5,0-0.6-0.5-1.1c-1.1,0-1.9,0.5-2.8,0.6c-1.1,0.6-1.5,1.1-2.5,1.8c-0.6,1.1-1.1,1.9-1.2,2.8c0,0.6,0,1.1,0,1.2
		C25.4,55.7,25.6,56.1,25.6,56.7L25.6,56.7z"/>
	<path class="st1" d="M19.2,65.7c0.5,0.6,1.1,1.1,1.2,1.2c0.6,0.5,1.1,0.6,1.5,1.1c0.6,0.5,1.2,0.5,1.5,0.5c0.6,0,1.2,0,1.9,0
		c2.5-0.5,4-2.2,4.6-4c-0.5-0.5-0.6-0.6-1.2-1.1c-0.5-0.5-1.1-0.6-1.5-0.6c-0.6-0.5-1.1-0.5-1.5-0.5c-0.6,0-1.2,0-1.5,0
		C21.6,62.7,19.9,63.8,19.2,65.7L19.2,65.7z"/>
	<path class="st1" d="M31.3,63.4c1.9-0.6,3.4-2.5,4-4.5c0.5-0.6,0.5-1.1,0.5-1.5c0-0.5,0-1.1,0-1.2s0-1.1-0.5-1.2
		c0-0.5-0.5-0.6-0.5-1.1c-1.8,0.6-3.9,1.9-4.6,3.9c-0.5,0.6-0.5,1.1-0.6,1.5c-0.5,0.6,0,1.1,0,1.5c0,0.6,0,1.1,0.5,1.5
		C30.7,62.7,30.7,62.9,31.3,63.4L31.3,63.4z"/>
	<path class="st1" d="M26,10c0.5,0,0.6,0,1.1,0s0.6-0.5,1.1-0.5s0.6-0.5,1.1-0.6c0.5-0.5,0.6-0.6,1.1-1.1S31,7.2,31,6.8
		c0.5,0,0.5-0.5,0.5-0.5s0-0.5,0.5-0.6c0.5-0.6,0.5-1.5,0-2.2c-0.6,0-1.5,0-2.2,0.5c-0.5,0-0.5,0.5-0.6,0.5S28.3,4.9,28,4.9
		c0,0-0.5,0.5-0.6,0.6C27,6,27,6.6,26.8,6.8c0,0.5-0.5,0.6-0.5,1.2c0,0.5,0,0.6,0,1.2C26,10,26,9.7,26,10L26,10z"/>
</g>
</svg>
