<?xml version="1.0" encoding="utf-8"?>
<!-- Generator: Adobe Illustrator 27.5.0, SVG Export Plug-In . SVG Version: 6.00 Build 0)  -->
<svg version="1.1" id="圖層_1" xmlns="http://www.w3.org/2000/svg" xmlns:xlink="http://www.w3.org/1999/xlink" x="0px" y="0px"
	 viewBox="0 0 32 32" style="enable-background:new 0 0 32 32;" xml:space="preserve">
<style type="text/css">
	.st0{fill-rule:evenodd;clip-rule:evenodd;fill:#082F7E;}
</style>
<path class="st0" d="M16,0C7.2,0,0,7.2,0,16s7.2,16,16,16s16-7.2,16-16S24.8,0,16,0z M11.9,23.5H8.3V12.6h3.6V23.5z M10.1,11.2
	c-1.2,0-2-0.8-2-1.9s0.8-1.9,2-1.9c1.2,0,2,0.8,2,1.9C12.2,10.3,11.4,11.2,10.1,11.2z M25.1,23.5h-3.7v-5.8c0-1.5-0.5-2.5-1.8-2.5
	c-1,0-1.6,0.7-1.9,1.3c-0.1,0.2-0.1,0.6-0.1,0.9v6.1H14c0,0,0,0,0-0.1v-0.2c0-0.9,0-3.4,0-5.8v-0.8c0-0.4,0-0.8,0-1.2v-0.7
	c0-1,0-1.8,0-2h3.6v1.5c0.5-0.7,1.3-1.8,3.3-1.8c2.4,0,4.2,1.6,4.2,4.9V23.5z"/>
</svg>
