<?xml version="1.0" encoding="utf-8"?>
<!-- Generator: Adobe Illustrator 27.6.1, SVG Export Plug-In . SVG Version: 6.00 Build 0)  -->
<svg version="1.1" id="uuid-1e9df814-8cd2-4531-b930-a1afb6f8f047"
	 xmlns="http://www.w3.org/2000/svg" xmlns:xlink="http://www.w3.org/1999/xlink" x="0px" y="0px" viewBox="0 0 168 72"
	 style="enable-background:new 0 0 168 72;" xml:space="preserve">
<style type="text/css">
	.st0{fill:#CCAC1A;}
</style>
<g>
	<g>
		<path class="st0" d="M33.8,20.5v5.1h6v2.3h-6v5.3h6.7v2.3H31V18.2h9.6v2.3H33.8z"/>
		<path class="st0" d="M49.9,28.5l4.4,7h-3.2l-3-4.7l-2.8,4.7h-3l4.4-6.8l-4.4-7h3.2l3,4.7l2.8-4.7h3L49.9,28.5z"/>
		<path class="st0" d="M56.4,24.9c0.6-1.1,1.4-1.9,2.4-2.5s2.2-0.9,3.5-0.9c1.7,0,3,0.4,4.1,1.2c1.1,0.8,1.8,1.9,2.2,3.4h-3.1
			c-0.2-0.7-0.6-1.2-1.2-1.6s-1.2-0.6-2.1-0.6c-1.2,0-2.1,0.4-2.8,1.2c-0.7,0.8-1,2-1,3.5c0,1.5,0.3,2.6,1,3.5
			c0.7,0.8,1.6,1.2,2.8,1.2c1.6,0,2.7-0.7,3.3-2.2h3.1c-0.4,1.4-1.1,2.5-2.2,3.3s-2.5,1.2-4.1,1.2c-1.3,0-2.5-0.3-3.5-0.9
			s-1.8-1.4-2.4-2.5c-0.6-1.1-0.9-2.3-0.9-3.7C55.5,27.2,55.8,26,56.4,24.9z"/>
		<path class="st0" d="M83.9,29.7H73.4c0.1,1.1,0.5,2,1.2,2.6s1.6,1,2.7,1c1.5,0,2.6-0.6,3.2-1.9h3.1c-0.4,1.3-1.2,2.3-2.3,3.1
			c-1.1,0.8-2.4,1.2-4,1.2c-1.3,0-2.5-0.3-3.5-0.9c-1-0.6-1.9-1.4-2.4-2.5c-0.6-1.1-0.9-2.3-0.9-3.7c0-1.4,0.3-2.7,0.9-3.7
			c0.6-1.1,1.4-1.9,2.4-2.5c1-0.6,2.2-0.9,3.6-0.9c1.3,0,2.4,0.3,3.5,0.8c1,0.6,1.8,1.4,2.4,2.4c0.6,1,0.8,2.2,0.8,3.5
			C84,28.8,84,29.3,83.9,29.7z M81,27.4c0-1-0.4-1.9-1.1-2.5c-0.7-0.6-1.6-0.9-2.7-0.9c-1,0-1.8,0.3-2.5,0.9
			c-0.7,0.6-1.1,1.5-1.2,2.5H81z"/>
		<path class="st0" d="M89.6,17.1v18.4h-2.8V17.1H89.6z"/>
		<path class="st0" d="M96.2,17.1v18.4h-2.8V17.1H96.2z"/>
		<path class="st0" d="M112.4,29.7h-10.5c0.1,1.1,0.5,2,1.2,2.6c0.7,0.7,1.6,1,2.7,1c1.5,0,2.6-0.6,3.2-1.9h3.1
			c-0.4,1.3-1.2,2.3-2.3,3.1s-2.4,1.2-4,1.2c-1.3,0-2.5-0.3-3.5-0.9c-1-0.6-1.9-1.4-2.4-2.5S99,30,99,28.6c0-1.4,0.3-2.7,0.9-3.7
			s1.4-1.9,2.4-2.5c1-0.6,2.2-0.9,3.6-0.9c1.3,0,2.5,0.3,3.5,0.8c1,0.6,1.8,1.4,2.4,2.4s0.8,2.2,0.8,3.5
			C112.5,28.8,112.5,29.3,112.4,29.7z M109.6,27.4c0-1-0.4-1.9-1.1-2.5c-0.7-0.6-1.6-0.9-2.7-0.9c-1,0-1.8,0.3-2.5,0.9
			s-1.1,1.5-1.2,2.5H109.6z"/>
		<path class="st0" d="M125.1,22.2c0.9,0.4,1.5,1.1,2,2c0.5,0.9,0.7,1.9,0.7,3.2v8.1h-2.8v-7.7c0-1.2-0.3-2.2-0.9-2.8
			c-0.6-0.7-1.5-1-2.5-1s-1.9,0.3-2.5,1c-0.6,0.7-0.9,1.6-0.9,2.8v7.7h-2.8V21.8h2.8v1.6c0.5-0.6,1.1-1,1.8-1.3s1.5-0.5,2.3-0.5
			C123.3,21.5,124.3,21.8,125.1,22.2z"/>
		<path class="st0" d="M134.8,24.1v7.6c0,0.5,0.1,0.9,0.4,1.1c0.2,0.2,0.7,0.3,1.2,0.3h1.7v2.4h-2.2c-1.3,0-2.3-0.3-2.9-0.9
			c-0.7-0.6-1-1.6-1-2.9v-7.6h-1.6v-2.3h1.6v-3.4h2.9v3.4h3.3v2.3H134.8z"/>
		<path class="st0" d="M55.7,50.6h-7.3l-1.2,3.5h-3l6.2-17.3h3.3l6.2,17.3h-3L55.7,50.6z M54.9,48.3l-2.8-8l-2.8,8H54.9z"/>
		<path class="st0" d="M81,40.5l-4.3,13.7h-3L71,44l-2.8,10.1h-3L61,40.5h2.9l2.9,11l2.9-11h3l2.8,11l2.8-11H81z"/>
		<path class="st0" d="M83.1,43.6c0.6-1.1,1.4-1.9,2.3-2.5c1-0.6,2.1-0.9,3.3-0.9c1.1,0,2,0.2,2.8,0.6c0.8,0.4,1.4,1,1.9,1.6v-2h2.9
			v13.7h-2.9v-2c-0.5,0.6-1.1,1.2-2,1.6c-0.8,0.4-1.8,0.6-2.8,0.6c-1.2,0-2.3-0.3-3.2-0.9c-1-0.6-1.8-1.5-2.3-2.5
			c-0.6-1.1-0.9-2.3-0.9-3.7C82.2,45.9,82.5,44.7,83.1,43.6z M92.9,44.8c-0.4-0.7-0.9-1.2-1.5-1.6c-0.6-0.4-1.3-0.5-2-0.5
			c-0.7,0-1.4,0.2-2,0.5c-0.6,0.4-1.1,0.9-1.5,1.6c-0.4,0.7-0.6,1.5-0.6,2.5c0,0.9,0.2,1.8,0.6,2.5c0.4,0.7,0.9,1.3,1.5,1.6
			c0.6,0.4,1.3,0.6,2,0.6c0.7,0,1.4-0.2,2-0.5c0.6-0.4,1.1-0.9,1.5-1.6c0.4-0.7,0.6-1.5,0.6-2.5C93.4,46.4,93.2,45.5,92.9,44.8z"/>
		<path class="st0" d="M104.5,40.8c0.7-0.4,1.5-0.6,2.5-0.6v2.9h-0.7c-1.1,0-2,0.3-2.5,0.8c-0.6,0.6-0.9,1.5-0.9,2.9v7.2H100V40.5
			h2.8v2C103.3,41.7,103.9,41.2,104.5,40.8z"/>
		<path class="st0" d="M109.5,43.6c0.6-1.1,1.4-1.9,2.3-2.5c1-0.6,2.1-0.9,3.3-0.9c0.9,0,1.8,0.2,2.7,0.6c0.9,0.4,1.6,0.9,2.1,1.6
			v-6.6h2.9v18.4h-2.9v-2.1c-0.5,0.7-1.1,1.2-1.9,1.6s-1.8,0.6-2.8,0.6c-1.2,0-2.3-0.3-3.3-0.9c-1-0.6-1.8-1.5-2.3-2.5
			s-0.9-2.3-0.9-3.7C108.7,45.9,109,44.7,109.5,43.6z M119.3,44.8c-0.4-0.7-0.9-1.2-1.5-1.6c-0.6-0.4-1.3-0.5-2-0.5
			c-0.7,0-1.4,0.2-2,0.5c-0.6,0.4-1.1,0.9-1.5,1.6c-0.4,0.7-0.6,1.5-0.6,2.5c0,0.9,0.2,1.8,0.6,2.5c0.4,0.7,0.9,1.3,1.5,1.6
			s1.3,0.6,2,0.6c0.7,0,1.4-0.2,2-0.5c0.6-0.4,1.1-0.9,1.5-1.6c0.4-0.7,0.6-1.5,0.6-2.5C119.9,46.4,119.7,45.5,119.3,44.8z"/>
	</g>
	<g>
		<g>
			<g>
				<g>
					<g>
						<path class="st0" d="M136.2,14.6c0.3,0.5,0.9,0.8,1.5,1.1c0.6,0.3,1.4,0.4,2.2,0.4c1.6,0,3.1-0.7,4-1.8
							c-0.7-1.2-2.2-1.9-3.8-1.8C138.4,12.6,137,13.5,136.2,14.6z"/>
					</g>
					<g>
						<path class="st0" d="M144.8,13.8c1.4,0,2.9-0.8,3.7-2.2c0.4-0.7,0.6-1.6,0.6-2.4c0-0.8-0.2-1.6-0.6-2.4
							c-1.4,0.1-2.8,1.1-3.5,2.6C144.3,10.8,144.2,12.5,144.8,13.8z"/>
					</g>
				</g>
				<g>
					<path class="st0" d="M138.9,21c0.1,0.3,0.3,0.5,0.5,0.8c0.2,0.2,0.5,0.5,0.8,0.7c0.3,0.2,0.6,0.4,1,0.5
						c0.4,0.1,0.7,0.3,1.2,0.3c1.7,0.3,3.4,0,4.5-1c-0.1-0.3-0.3-0.7-0.5-1c-0.2-0.3-0.5-0.6-0.8-0.8c-0.3-0.2-0.6-0.4-1-0.6
						c-0.4-0.2-0.8-0.3-1.2-0.3C141.6,19.4,140,20.1,138.9,21z"/>
					<path class="st0" d="M148,22c1.5,0.3,3.2-0.1,4.4-1.5c0.3-0.3,0.6-0.7,0.8-1.1c0.2-0.4,0.3-0.8,0.4-1.3
						c0.1-0.4,0.1-0.9,0.1-1.3c0-0.4-0.1-0.9-0.2-1.3c-1.5-0.3-3.1,0.5-4.2,1.9c-0.3,0.4-0.5,0.7-0.7,1.1c-0.2,0.4-0.3,0.8-0.4,1.2
						c-0.1,0.4-0.2,0.8-0.2,1.2C147.9,21.3,147.9,21.7,148,22z"/>
				</g>
				<g>
					<path class="st0" d="M140.3,27.8c0.3,1.2,1.4,2.4,3.1,3.1c1.7,0.7,3.6,0.7,4.9,0c-0.1-0.8-0.4-1.5-1-2.1
						c-0.5-0.6-1.2-1.1-2.1-1.4C143.4,26.7,141.6,27,140.3,27.8z"/>
					<path class="st0" d="M149.5,30.8c1.5,0.6,3.3,0.5,4.9-0.6c1.6-1.1,2.4-3.1,2.2-5c-1.5-0.6-3.4-0.1-4.8,1.1
						c-0.7,0.6-1.3,1.4-1.7,2.1C149.7,29.2,149.4,30,149.5,30.8z"/>
				</g>
				<g>
					<path class="st0" d="M140.2,34.6c0,0.3,0.1,0.7,0.2,1c0.1,0.3,0.3,0.7,0.5,1c0.4,0.6,1,1.3,1.8,1.8c1.6,1.1,3.5,1.5,5.1,1
						c0-0.4,0-0.8-0.1-1.2c-0.1-0.4-0.2-0.8-0.4-1.2c-0.4-0.8-1.1-1.4-1.9-1.9C143.7,34.1,141.7,34.1,140.2,34.6z"/>
					<path class="st0" d="M149.1,39.6c1.4,1,3.3,1.3,5.2,0.4c0.9-0.4,1.7-1.1,2.3-1.9c0.3-0.4,0.5-0.9,0.7-1.3
						c0.2-0.5,0.3-1,0.3-1.5c-1.5-0.9-3.5-0.9-5.2,0.1c-0.9,0.5-1.6,1.1-2.2,1.9c-0.3,0.4-0.5,0.7-0.7,1.1
						C149.3,38.8,149.2,39.2,149.1,39.6z"/>
				</g>
				<g>
					<path class="st0" d="M138.8,41.2c-0.1,0.3-0.1,0.7,0,1.1c0,0.2,0.1,0.4,0.1,0.6c0.1,0.2,0.1,0.4,0.2,0.6
						c0.3,0.7,0.8,1.5,1.5,2.3c1.4,1.4,3.3,2.3,5,2.2c0.3-0.8,0.2-1.7,0-2.6c-0.1-0.4-0.3-0.9-0.6-1.3c-0.3-0.4-0.6-0.8-1-1.1
						c-0.7-0.7-1.7-1.1-2.6-1.4C140.6,41.2,139.7,41.1,138.8,41.2z"/>
					<path class="st0" d="M146.9,48.3c1.2,1.3,3.1,2.1,5.3,1.6c1.1-0.2,2-0.8,2.8-1.5c0.2-0.2,0.4-0.4,0.5-0.6
						c0.2-0.2,0.3-0.4,0.5-0.7c0.3-0.5,0.5-0.9,0.7-1.5c-0.7-0.6-1.5-1.1-2.4-1.2c-0.9-0.2-1.9-0.1-3,0.2c-0.5,0.2-1,0.4-1.4,0.6
						c-0.4,0.2-0.8,0.5-1.2,0.8C147.8,46.7,147.3,47.5,146.9,48.3z"/>
				</g>
				<g>
					<path class="st0" d="M136.2,47.3c-0.1,0.3-0.2,0.7-0.2,1.1c0,0.1,0,0.2,0,0.3c0,0.1,0,0.2,0,0.3c0,0.2,0,0.4,0.1,0.6
						c0.1,0.4,0.2,0.9,0.4,1.3c0.2,0.4,0.4,0.9,0.7,1.3c1.1,1.8,2.9,3.1,4.7,3.3c0.2-0.4,0.4-0.8,0.5-1.3c0.1-0.5,0.1-0.9,0.1-1.4
						c-0.1-0.9-0.5-1.9-1.1-2.8c-0.6-0.9-1.5-1.5-2.4-2C138,47.6,137.1,47.4,136.2,47.3z"/>
					<path class="st0" d="M143,56.2c1,1.6,2.8,2.8,5.1,2.8c0.6,0,1.1-0.1,1.7-0.3c0.5-0.2,1-0.4,1.5-0.7c0.2-0.2,0.5-0.3,0.7-0.5
						c0.1-0.1,0.2-0.2,0.3-0.3c0.1-0.1,0.2-0.2,0.3-0.3c0.4-0.4,0.7-0.9,1-1.4c-0.5-0.8-1.3-1.4-2.2-1.8c-0.9-0.4-2-0.5-3.1-0.4
						c-1.1,0.1-2.1,0.5-3,1c-0.4,0.2-0.9,0.5-1.2,0.8C143.6,55.5,143.2,55.9,143,56.2z"/>
				</g>
				<g>
					<g>
						<path class="st0" d="M132.4,52.6c-0.2,0.3-0.3,0.7-0.4,1c-0.1,0.4-0.2,0.8-0.2,1.2c0,0.4,0,0.9,0.1,1.4c0.1,0.5,0.2,1,0.4,1.5
							c0.8,2.1,2.3,3.8,4.1,4.4c0.3-0.4,0.6-0.8,0.8-1.2c0.2-0.4,0.3-0.9,0.4-1.4c0.1-0.5,0.1-1,0-1.5c-0.1-0.5-0.3-1-0.5-1.6
							C136.1,54.5,134.2,53.1,132.4,52.6z"/>
					</g>
					<g>
						<path class="st0" d="M137.5,63.2c0.7,1.8,2.3,3.5,4.6,3.9c0.6,0.1,1.2,0.1,1.8,0.1c0.6,0,1.2-0.2,1.7-0.4
							c0.6-0.2,1.1-0.5,1.6-0.8c0.5-0.4,0.9-0.8,1.3-1.2c-0.7-1.9-2.7-3.1-5.1-3.3c-0.6-0.1-1.2-0.1-1.7,0c-0.5,0.1-1.1,0.2-1.6,0.3
							c-0.5,0.2-1,0.4-1.4,0.6C138.3,62.6,137.8,62.9,137.5,63.2z"/>
					</g>
				</g>
			</g>
			<g>
				<path class="st0" d="M141.5,9.3c0.1-0.3,0.2-0.7,0.3-1c0-0.4,0-0.7,0-1.1c-0.1-0.4-0.2-0.7-0.4-1.1c-0.2-0.4-0.4-0.7-0.7-1.1
					c-0.3-0.3-0.6-0.6-0.9-0.9c-0.2-0.1-0.3-0.2-0.5-0.3c-0.2-0.1-0.4-0.2-0.5-0.2c-0.7-0.3-1.5-0.3-2.1-0.2
					c-0.1,0.7-0.1,1.4,0.1,2.1c0,0.2,0.1,0.3,0.2,0.5c0.1,0.2,0.1,0.3,0.2,0.5c0.2,0.3,0.4,0.7,0.6,1c0.3,0.3,0.5,0.6,0.8,0.8
					c0.3,0.2,0.6,0.4,0.9,0.6c0.3,0.1,0.7,0.3,1,0.3C140.8,9.3,141.1,9.3,141.5,9.3z"/>
			</g>
		</g>
		<g>
			<g>
				<g>
					<g>
						<path class="st0" d="M19.5,6.8c-0.4,0.7-0.6,1.5-0.6,2.4c0,0.8,0.2,1.7,0.6,2.4c0.9,1.5,2.4,2.2,3.7,2.2
							c0.6-1.3,0.5-2.9-0.2-4.4C22.2,7.8,20.9,6.8,19.5,6.8z"/>
					</g>
					<g>
						<path class="st0" d="M24.2,14.3c0.9,1.1,2.4,1.8,4,1.8c0.8,0,1.6-0.1,2.2-0.4c0.6-0.3,1.1-0.6,1.5-1.1c-0.8-1.1-2.2-2-3.8-2.1
							C26.3,12.3,24.9,13.1,24.2,14.3z"/>
					</g>
				</g>
				<g>
					<path class="st0" d="M14.6,15.5c-0.1,0.4-0.2,0.9-0.2,1.3c0,0.4,0,0.9,0.1,1.3c0.1,0.4,0.2,0.9,0.4,1.3
						c0.2,0.4,0.5,0.8,0.8,1.1c1.2,1.4,2.9,1.8,4.4,1.5c0.1-0.4,0.1-0.7,0.1-1.1c0-0.4-0.1-0.8-0.2-1.2c-0.1-0.4-0.3-0.8-0.4-1.2
						c-0.2-0.4-0.4-0.8-0.7-1.1C17.7,16,16.1,15.3,14.6,15.5z"/>
					<path class="st0" d="M21.1,22.3c1.1,1,2.9,1.3,4.5,1c0.4-0.1,0.8-0.2,1.2-0.3c0.4-0.1,0.7-0.3,1-0.5c0.3-0.2,0.5-0.4,0.8-0.7
						c0.2-0.2,0.4-0.5,0.5-0.8c-1.1-1-2.7-1.6-4.4-1.4c-0.4,0.1-0.8,0.2-1.2,0.3c-0.4,0.2-0.7,0.4-1,0.6c-0.3,0.2-0.6,0.5-0.8,0.8
						C21.4,21.6,21.2,22,21.1,22.3z"/>
				</g>
				<g>
					<path class="st0" d="M11.5,25.2c-0.2,1.9,0.6,3.8,2.2,5c1.6,1.2,3.4,1.2,4.9,0.6c0-0.8-0.2-1.6-0.6-2.4c-0.4-0.8-1-1.5-1.7-2.1
						C14.8,25,13,24.6,11.5,25.2z"/>
					<path class="st0" d="M19.7,30.8c1.4,0.8,3.2,0.7,4.9,0c1.7-0.7,2.8-1.9,3.1-3.1c-1.3-0.8-3.1-1.1-4.9-0.5
						c-0.9,0.3-1.6,0.8-2.1,1.4C20.1,29.3,19.8,30.1,19.7,30.8z"/>
				</g>
				<g>
					<path class="st0" d="M10.4,35.3c0,0.5,0.2,1,0.3,1.5c0.2,0.5,0.4,0.9,0.7,1.3c0.6,0.8,1.4,1.5,2.3,1.9c1.9,0.9,3.8,0.5,5.2-0.4
						c-0.1-0.4-0.2-0.8-0.4-1.2c-0.2-0.4-0.4-0.8-0.7-1.1c-0.5-0.7-1.3-1.4-2.2-1.9C13.9,34.5,11.9,34.4,10.4,35.3z"/>
					<path class="st0" d="M20.1,39.5c1.6,0.5,3.5,0,5.1-1c0.8-0.5,1.4-1.2,1.8-1.8c0.2-0.3,0.4-0.7,0.5-1c0.1-0.3,0.2-0.7,0.2-1
						c-1.5-0.5-3.5-0.5-5.2,0.5c-0.8,0.5-1.5,1.2-1.9,1.9c-0.2,0.4-0.4,0.8-0.4,1.2C20.2,38.6,20.1,39.1,20.1,39.5z"/>
				</g>
				<g>
					<path class="st0" d="M11.4,45.6c0.2,0.5,0.4,1,0.7,1.5c0.1,0.2,0.3,0.4,0.5,0.7c0.2,0.2,0.4,0.4,0.5,0.6
						c0.8,0.7,1.7,1.3,2.8,1.5c2.1,0.5,4.1-0.3,5.3-1.6c-0.4-0.8-0.9-1.6-1.7-2.2c-0.4-0.3-0.8-0.6-1.2-0.8
						c-0.4-0.2-0.9-0.5-1.4-0.6c-1-0.3-2-0.4-3-0.2C12.9,44.5,12,44.9,11.4,45.6z"/>
					<path class="st0" d="M22.3,47.8c1.8,0.2,3.6-0.7,5-2.2c0.7-0.7,1.2-1.5,1.5-2.3c0.1-0.2,0.1-0.4,0.2-0.6
						c0.1-0.2,0.1-0.4,0.1-0.6c0.1-0.4,0.1-0.7,0-1.1c-0.8-0.1-1.8,0-2.7,0.2c-0.9,0.3-1.8,0.7-2.6,1.4c-0.4,0.3-0.7,0.7-1,1.1
						c-0.3,0.4-0.5,0.8-0.6,1.3C22.1,46.1,22.1,47,22.3,47.8z"/>
				</g>
				<g>
					<path class="st0" d="M14.4,55.5c0.3,0.5,0.6,1,1,1.4c0.1,0.1,0.2,0.2,0.3,0.3c0.1,0.1,0.2,0.2,0.3,0.3c0.2,0.2,0.5,0.3,0.7,0.5
						c0.5,0.3,1,0.5,1.5,0.7c0.5,0.2,1.1,0.3,1.7,0.3c2.3,0.1,4.1-1.2,5.1-2.8c-0.3-0.4-0.6-0.7-1-1c-0.4-0.3-0.8-0.6-1.2-0.8
						c-0.9-0.5-1.9-0.8-3-1c-1.1-0.1-2.2,0-3.1,0.4C15.8,54.1,15,54.7,14.4,55.5z"/>
					<path class="st0" d="M26.2,55.5c1.8-0.2,3.6-1.5,4.7-3.3c0.3-0.4,0.5-0.9,0.7-1.3c0.2-0.4,0.3-0.9,0.4-1.3
						c0-0.2,0.1-0.4,0.1-0.6c0-0.1,0-0.2,0-0.3c0-0.1,0-0.2,0-0.3c0-0.4-0.1-0.7-0.2-1.1c-0.9,0.1-1.8,0.3-2.7,0.8
						c-0.9,0.5-1.7,1.1-2.4,2c-0.6,0.9-1,1.8-1.1,2.8c0,0.5,0,1,0.1,1.4C25.8,54.7,26,55.1,26.2,55.5z"/>
				</g>
				<g>
					<g>
						<path class="st0" d="M19.5,64.8c0.4,0.5,0.8,0.9,1.3,1.2c0.5,0.3,1,0.6,1.6,0.8c0.6,0.2,1.1,0.4,1.7,0.4
							c0.6,0.1,1.2,0,1.8-0.1c2.4-0.4,4-2.1,4.6-3.9c-0.4-0.3-0.8-0.6-1.2-0.9c-0.4-0.2-0.9-0.5-1.4-0.6c-0.5-0.2-1.1-0.3-1.6-0.3
							c-0.6-0.1-1.1-0.1-1.7,0C22.2,61.7,20.2,62.9,19.5,64.8z"/>
					</g>
					<g>
						<path class="st0" d="M31.6,62.2c1.8-0.6,3.3-2.3,4.1-4.4c0.2-0.5,0.3-1,0.4-1.5c0.1-0.5,0.1-1,0.1-1.4c0-0.4-0.1-0.8-0.2-1.2
							c-0.1-0.4-0.2-0.7-0.4-1c-1.8,0.5-3.7,1.9-4.6,3.9c-0.2,0.5-0.4,1-0.5,1.6c-0.1,0.5-0.1,1,0,1.5c0.1,0.5,0.2,1,0.4,1.4
							C31,61.5,31.3,61.9,31.6,62.2z"/>
					</g>
				</g>
			</g>
			<g>
				<path class="st0" d="M26.5,9.3c0.4,0,0.7,0,1-0.1c0.3-0.1,0.7-0.2,1-0.3c0.3-0.2,0.7-0.3,0.9-0.6c0.3-0.2,0.6-0.5,0.8-0.8
					c0.3-0.3,0.5-0.6,0.6-1c0.1-0.2,0.2-0.3,0.2-0.5c0.1-0.2,0.1-0.3,0.2-0.5c0.2-0.7,0.2-1.4,0.1-2.1c-0.7-0.1-1.4-0.1-2.1,0.2
					c-0.2,0.1-0.4,0.1-0.5,0.2c-0.2,0.1-0.3,0.2-0.5,0.3c-0.3,0.2-0.6,0.5-0.9,0.9c-0.3,0.3-0.5,0.7-0.7,1.1
					c-0.2,0.4-0.3,0.7-0.4,1.1c-0.1,0.4-0.1,0.8,0,1.1C26.3,8.6,26.4,9,26.5,9.3z"/>
			</g>
		</g>
	</g>
</g>
</svg>
