<?xml version="1.0" encoding="utf-8"?>
<!-- Generator: Adobe Illustrator 27.6.1, SVG Export Plug-In . SVG Version: 6.00 Build 0)  -->
<svg version="1.1" id="uuid-1e9df814-8cd2-4531-b930-a1afb6f8f047"
	 xmlns="http://www.w3.org/2000/svg" xmlns:xlink="http://www.w3.org/1999/xlink" x="0px" y="0px" viewBox="0 0 56 24"
	 style="enable-background:new 0 0 56 24;" xml:space="preserve">
<style type="text/css">
	.st0{fill:#CCAC1A;}
	.st1{font-family:'Poppins-Medium';}
	.st2{font-size:8px;}
</style>
<text transform="matrix(1 0 0 1 18.59 12.4433)" class="st0 st1 st2">Gold</text>
<text transform="matrix(1 0 0 1 14.95 18.4433)" class="st0 st1 st2">Award</text>
<path class="st0" d="M44.8,5.7C44.9,5.9,45.1,6,45.3,6c0.2,0.1,0.4,0.1,0.7,0.1c0.5,0,1-0.2,1.3-0.6C47,5.2,46.5,5,46,5
	C45.5,5.1,45,5.4,44.8,5.7z"/>
<path class="st0" d="M47.5,5.5c0.4,0,0.9-0.2,1.2-0.7c0.1-0.2,0.2-0.5,0.2-0.8s-0.1-0.5-0.2-0.8c-0.5,0-0.9,0.3-1.1,0.8
	C47.3,4.5,47.3,5,47.5,5.5L47.5,5.5z"/>
<path class="st0" d="M45.6,7.8c0,0.1,0.1,0.2,0.2,0.2C45.9,8.1,46,8.2,46,8.2s0.2,0.1,0.3,0.2c0.1,0.1,0.2,0.1,0.4,0.1
	c0.5,0.1,1.1,0,1.5-0.3c0-0.1-0.1-0.2-0.2-0.3c-0.1-0.1-0.2-0.2-0.3-0.3s-0.2-0.1-0.3-0.2S47.2,7.3,47,7.3C46.5,7.3,46,7.5,45.6,7.8
	z"/>
<path class="st0" d="M48.6,8.1c0.5,0.1,1-0.1,1.4-0.5c0.1-0.1,0.2-0.2,0.2-0.4c0.1-0.1,0.1-0.3,0.1-0.4s0-0.3,0-0.4s0-0.3-0.1-0.4
	c-0.5-0.1-1,0.2-1.4,0.6c-0.1,0.1-0.2,0.2-0.2,0.4c-0.1,0.1-0.1,0.2-0.1,0.4s-0.1,0.2-0.1,0.4C48.5,7.9,48.5,8,48.6,8.1L48.6,8.1z"
	/>
<path class="st0" d="M46.1,10c0.1,0.4,0.4,0.8,1,1c0.5,0.2,1.1,0.2,1.6,0c0-0.2-0.1-0.5-0.3-0.7S48,9.9,47.7,9.8
	C47.1,9.6,46.5,9.7,46.1,10L46.1,10z"/>
<path class="st0" d="M49,10.9c0.5,0.2,1.1,0.2,1.6-0.2s0.8-1,0.7-1.6c-0.5-0.2-1.1-0.1-1.5,0.3c-0.2,0.2-0.4,0.4-0.5,0.7
	C49.1,10.4,49,10.7,49,10.9L49,10.9z"/>
<path class="st0" d="M46.1,12.2c0,0.1,0,0.2,0.1,0.3s0.1,0.2,0.2,0.3c0.1,0.2,0.3,0.4,0.6,0.6c0.5,0.3,1.1,0.5,1.6,0.3
	c0-0.1,0-0.3,0-0.4c0-0.1-0.1-0.3-0.1-0.4c-0.1-0.2-0.3-0.5-0.6-0.6C47.2,12,46.5,12,46.1,12.2z"/>
<path class="st0" d="M48.9,13.8c0.4,0.3,1.1,0.4,1.7,0.1c0.3-0.1,0.6-0.4,0.7-0.6c0.1-0.1,0.2-0.3,0.2-0.4c0.1-0.2,0.1-0.3,0.1-0.5
	c-0.5-0.3-1.1-0.3-1.7,0c-0.3,0.2-0.5,0.4-0.7,0.6c-0.1,0.1-0.2,0.2-0.2,0.4C49,13.5,48.9,13.7,48.9,13.8L48.9,13.8z"/>
<path class="st0" d="M45.6,14.3c0,0.1,0,0.2,0,0.3s0,0.1,0,0.2c0,0.1,0,0.1,0.1,0.2c0.1,0.2,0.3,0.5,0.5,0.7
	c0.4,0.5,1.1,0.7,1.6,0.7c0.1-0.3,0.1-0.6,0-0.8c0-0.1-0.1-0.3-0.2-0.4c-0.1-0.1-0.2-0.2-0.3-0.4c-0.2-0.2-0.5-0.4-0.8-0.4
	C46.2,14.3,45.9,14.2,45.6,14.3L45.6,14.3z"/>
<path class="st0" d="M48.2,16.5c0.4,0.4,1,0.7,1.7,0.5c0.3-0.1,0.6-0.2,0.9-0.5c0.1-0.1,0.1-0.1,0.2-0.2c0.1-0.1,0.1-0.1,0.2-0.2
	c0.1-0.2,0.2-0.3,0.2-0.5c-0.2-0.2-0.5-0.3-0.8-0.4c-0.3-0.1-0.6,0-0.9,0.1c-0.2,0.1-0.3,0.1-0.5,0.2c-0.1,0.1-0.3,0.2-0.4,0.3
	C48.5,16,48.3,16.3,48.2,16.5L48.2,16.5z"/>
<path class="st0" d="M44.8,16.2c0,0.1-0.1,0.2-0.1,0.3v0.1v0.1c0,0.1,0,0.1,0,0.2s0.1,0.3,0.1,0.4c0.1,0.1,0.1,0.3,0.2,0.4
	c0.4,0.6,0.9,1,1.5,1.1c0.1-0.1,0.1-0.3,0.2-0.4c0-0.2,0-0.3,0-0.4c0-0.3-0.2-0.6-0.4-0.9s-0.5-0.5-0.8-0.6
	C45.3,16.3,45,16.3,44.8,16.2L44.8,16.2z"/>
<path class="st0" d="M46.9,19.1c0.3,0.5,0.9,0.9,1.6,0.9c0.2,0,0.4,0,0.5-0.1c0.2-0.1,0.3-0.1,0.5-0.2c0.1-0.1,0.2-0.1,0.2-0.2
	l0.1-0.1l0.1-0.1c0.1-0.1,0.2-0.3,0.3-0.4c-0.2-0.3-0.4-0.4-0.7-0.6s-0.6-0.2-1-0.1s-0.7,0.2-1,0.3c-0.1,0.1-0.3,0.2-0.4,0.3
	S47,19,46.9,19.1L46.9,19.1z"/>
<path class="st0" d="M43.5,17.9c-0.1,0.1-0.1,0.2-0.1,0.3c0,0.1-0.1,0.2-0.1,0.4c0,0.1,0,0.3,0,0.4c0,0.2,0.1,0.3,0.1,0.5
	c0.2,0.7,0.7,1.2,1.3,1.4c0.1-0.1,0.2-0.2,0.2-0.4S45,20.2,45,20s0-0.3,0-0.5s-0.1-0.3-0.2-0.5C44.7,18.5,44.1,18.1,43.5,17.9
	L43.5,17.9z"/>
<path class="st0" d="M45.2,21.3c0.2,0.6,0.7,1.1,1.5,1.3c0.2,0,0.4,0,0.6,0c0.2,0,0.4-0.1,0.6-0.1c0.2-0.1,0.3-0.2,0.5-0.3
	c0.2-0.1,0.3-0.2,0.4-0.4c-0.2-0.6-0.9-1-1.6-1.1c-0.2,0-0.4,0-0.6,0s-0.3,0.1-0.5,0.1c-0.2,0.1-0.3,0.1-0.5,0.2
	S45.3,21.2,45.2,21.3L45.2,21.3z"/>
<path class="st0" d="M46.5,4c0-0.1,0.1-0.2,0.1-0.3s0-0.2,0-0.4S46.5,3.1,46.4,3s-0.1-0.2-0.2-0.3c-0.1-0.1-0.2-0.2-0.3-0.3
	c-0.1,0-0.1-0.1-0.2-0.1c-0.1,0-0.1-0.1-0.2-0.1c-0.2-0.1-0.5-0.1-0.7-0.1c-0.1,0.2,0,0.5,0,0.7c0,0.1,0,0.1,0.1,0.2
	C45,3,45,3.1,45,3.2c0.1,0.1,0.1,0.2,0.2,0.3c0.1,0.1,0.2,0.2,0.3,0.3s0.2,0.1,0.3,0.2c0.1,0,0.2,0,0.3,0C46.2,4,46.3,4.1,46.5,4
	L46.5,4z"/>
<path class="st0" d="M7.3,3.2C7.1,3.4,7.1,3.7,7.1,4s0.1,0.5,0.2,0.8C7.6,5.2,8,5.5,8.5,5.5c0.2-0.4,0.1-1-0.1-1.5S7.7,3.2,7.3,3.2
	L7.3,3.2z"/>
<path class="st0" d="M8.8,5.6C9,6,9.5,6.2,10.1,6.2c0.3,0,0.5,0,0.7-0.1s0.4-0.2,0.5-0.3C11,5.4,10.5,5.1,10,5C9.5,5,9,5.2,8.8,5.6z
	"/>
<path class="st0" d="M5.7,6c0,0.1-0.1,0.3-0.1,0.4s0,0.3,0,0.4s0.1,0.3,0.1,0.4C5.9,7.4,6,7.5,6,7.6c0.4,0.5,1,0.6,1.5,0.5
	c0-0.1,0-0.2,0-0.4s0-0.2,0-0.4S7.4,7.1,7.3,7C7.2,6.9,7.2,6.8,7.1,6.6C6.7,6.2,6.2,5.9,5.7,6L5.7,6z"/>
<path class="st0" d="M7.8,8.2c0.4,0.3,0.9,0.4,1.5,0.3c0.1,0,0.3-0.1,0.4-0.1C9.8,8.3,9.9,8.3,10,8.2c0,0,0.1-0.1,0.2-0.2
	c0.1-0.1,0.1-0.2,0.2-0.2C10,7.5,9.5,7.3,8.9,7.4c-0.1,0-0.3,0.1-0.4,0.1c-0.1,0-0.2,0.1-0.3,0.1C8.1,7.7,8,7.8,8,7.9
	C7.9,8,7.8,8.1,7.8,8.2z"/>
<path class="st0" d="M4.7,9.1c-0.1,0.6,0.2,1.2,0.7,1.6c0.5,0.4,1.1,0.4,1.6,0.2c0-0.2-0.1-0.5-0.2-0.8C6.7,9.9,6.5,9.7,6.3,9.5
	C5.8,9.1,5.2,8.9,4.7,9.1L4.7,9.1z"/>
<path class="st0" d="M7.4,10.9c0.4,0.2,1,0.2,1.6,0c0.5-0.2,0.9-0.6,1-1C9.6,9.7,9,9.5,8.4,9.7C8.1,9.9,7.9,10,7.7,10.2
	S7.4,10.7,7.4,10.9L7.4,10.9z"/>
<path class="st0" d="M4.4,12.4c0,0.2,0,0.3,0.1,0.5s0.1,0.3,0.2,0.4c0.2,0.3,0.4,0.5,0.7,0.6c0.6,0.3,1.2,0.2,1.7-0.1
	c0-0.1-0.1-0.3-0.1-0.4S6.8,13.1,6.7,13c-0.2-0.2-0.4-0.4-0.7-0.6C5.5,12.1,4.8,12.1,4.4,12.4L4.4,12.4z"/>
<path class="st0" d="M7.5,13.7c0.5,0.2,1.1,0,1.6-0.3c0.3-0.2,0.5-0.4,0.6-0.6c0.1-0.1,0.1-0.2,0.2-0.3c0-0.1,0-0.2,0.1-0.3
	C9.5,12,8.8,12,8.3,12.3c-0.3,0.2-0.5,0.4-0.6,0.6c-0.1,0.1-0.1,0.2-0.1,0.4S7.5,13.6,7.5,13.7z"/>
<path class="st0" d="M4.7,15.7c0,0.2,0.1,0.3,0.2,0.5c0,0.1,0.1,0.1,0.2,0.2c0,0.1,0.1,0.1,0.2,0.2C5.5,16.8,5.8,17,6.1,17
	c0.7,0.2,1.3-0.1,1.7-0.5c-0.1-0.3-0.3-0.5-0.5-0.7c-0.1-0.1-0.2-0.2-0.4-0.3c-0.1-0.1-0.3-0.2-0.5-0.2c-0.3-0.1-0.7-0.1-1-0.1
	C5.2,15.3,4.9,15.5,4.7,15.7L4.7,15.7z"/>
<path class="st0" d="M8.2,16.4c0.6,0.1,1.2-0.2,1.6-0.7c0.2-0.2,0.4-0.5,0.5-0.7c0-0.1,0-0.1,0.1-0.2s0-0.1,0-0.2c0-0.1,0-0.2,0-0.3
	c-0.3,0-0.6,0-0.9,0.1c-0.3,0.1-0.6,0.2-0.8,0.4c-0.1,0.1-0.2,0.2-0.3,0.4c-0.1,0.1-0.2,0.3-0.2,0.4C8.1,15.8,8.1,16.1,8.2,16.4
	L8.2,16.4z"/>
<path class="st0" d="M5.7,18.9C5.8,19,5.9,19.2,6,19.3l0.1,0.1l0.1,0.1c0.1,0.1,0.2,0.1,0.2,0.2c0.2,0.1,0.3,0.2,0.5,0.2
	c0.2,0,0.3,0.1,0.5,0.1c0.7,0,1.3-0.4,1.6-0.9c0-0.1-0.1-0.2-0.3-0.3c-0.1-0.1-0.2-0.2-0.4-0.3c-0.3-0.2-0.6-0.3-1-0.3s-0.7,0-1,0.1
	C6.1,18.4,5.8,18.6,5.7,18.9L5.7,18.9z"/>
<path class="st0" d="M9.4,18.9c0.6-0.1,1.2-0.5,1.5-1.1c0.1-0.1,0.2-0.3,0.2-0.4s0.1-0.3,0.1-0.4s0-0.1,0-0.2v-0.1v-0.1
	c0-0.1,0-0.2-0.1-0.3c-0.3,0-0.6,0.1-0.9,0.2c-0.3,0.2-0.5,0.3-0.8,0.6C9.2,17.4,9.1,17.7,9,18c0,0.2,0,0.3,0,0.4
	C9.3,18.6,9.4,18.7,9.4,18.9L9.4,18.9z"/>
<path class="st0" d="M7.3,21.8c0.1,0.2,0.3,0.3,0.4,0.4c0.2,0.1,0.3,0.2,0.5,0.3c0.2,0.1,0.4,0.1,0.5,0.1c0.2,0,0.4,0,0.6,0
	c0.8-0.1,1.3-0.7,1.5-1.3c-0.1-0.1-0.2-0.2-0.4-0.3c-0.1-0.1-0.3-0.2-0.5-0.2c-0.2-0.1-0.3-0.1-0.5-0.1s-0.4,0-0.5,0
	C8.1,20.8,7.5,21.2,7.3,21.8L7.3,21.8z"/>
<path class="st0" d="M11.2,21c0.6-0.2,1.1-0.8,1.3-1.4c0.1-0.2,0.1-0.3,0.1-0.5s0-0.3,0-0.4s0-0.3-0.1-0.4c0-0.1-0.1-0.2-0.1-0.3
	c-0.6,0.2-1.2,0.6-1.5,1.2c-0.1,0.2-0.1,0.3-0.2,0.5s0,0.3,0,0.5s0,0.3,0.1,0.5C11,20.8,11,20.9,11.2,21L11.2,21z"/>
<path class="st0" d="M9.5,4c0.1,0,0.2,0,0.3,0s0.2-0.1,0.3-0.1s0.2-0.1,0.3-0.2s0.2-0.2,0.3-0.3s0.2-0.2,0.2-0.3C11,3.1,11,3,11,3
	s0-0.1,0.1-0.2c0.1-0.2,0.1-0.5,0-0.7c-0.2,0-0.5,0-0.7,0.1c-0.1,0-0.1,0.1-0.2,0.1c-0.1,0-0.1,0.1-0.2,0.1c0,0-0.1,0.1-0.2,0.2
	S9.7,2.9,9.6,3c0,0.1-0.1,0.2-0.1,0.4c0,0.1,0,0.2,0,0.4C9.5,4,9.5,3.9,9.5,4L9.5,4z"/>
</svg>
