<?xml version="1.0" encoding="UTF-8"?><svg id="uuid-1e9df814-8cd2-4531-b930-a1afb6f8f047" xmlns="http://www.w3.org/2000/svg" viewBox="0 0 160 160"><defs><style>.uuid-57440bbd-ab37-4989-b45d-6a0cec631434,.uuid-e08fa76e-91c8-4948-a17e-08165e1ec791{fill:#eb591a;}.uuid-e08fa76e-91c8-4948-a17e-08165e1ec791{font-family:Poppins-Medium, 'Poppins Medium';font-size:8px;font-weight:500;}</style></defs><text class="uuid-e08fa76e-91c8-4948-a17e-08165e1ec791" transform="translate(70.59 80.07)"><tspan x="0" y="0">Gold</tspan><tspan x="-3.64" y="6">Award</tspan></text><path class="uuid-57440bbd-ab37-4989-b45d-6a0cec631434" d="m96.78,73.35c.11.15.28.26.47.35.19.08.44.13.69.12.51,0,1-.21,1.28-.57-.23-.38-.69-.62-1.22-.58-.52.04-.97.33-1.22.68Z"/><path class="uuid-57440bbd-ab37-4989-b45d-6a0cec631434" d="m99.51,73.09c.45,0,.92-.24,1.2-.72.14-.24.2-.5.2-.77,0-.27-.07-.53-.2-.76-.46.02-.89.34-1.13.82-.24.49-.26,1.01-.08,1.43Z"/><path class="uuid-57440bbd-ab37-4989-b45d-6a0cec631434" d="m97.64,75.42c.04.09.1.17.17.24.07.08.15.15.24.21.09.06.2.12.32.16.12.05.24.09.37.11.54.11,1.1,0,1.46-.31-.04-.11-.09-.22-.16-.31-.07-.1-.16-.18-.26-.26-.1-.08-.21-.14-.33-.19-.12-.05-.25-.08-.39-.1-.55-.07-1.08.14-1.42.45Z"/><path class="uuid-57440bbd-ab37-4989-b45d-6a0cec631434" d="m100.55,75.74c.47.09,1.02-.05,1.41-.49.1-.11.18-.23.25-.36.06-.13.11-.26.14-.4.03-.14.04-.28.04-.43,0-.14-.04-.28-.08-.41-.49-.08-1,.16-1.36.62-.09.11-.16.23-.22.36-.06.12-.11.25-.14.38-.03.13-.05.25-.05.38,0,.12,0,.25.03.36Z"/><path class="uuid-57440bbd-ab37-4989-b45d-6a0cec631434" d="m98.07,77.6c.1.39.45.76.99.99.54.23,1.14.24,1.58,0-.04-.25-.13-.49-.31-.69-.18-.2-.4-.36-.69-.46-.56-.19-1.15-.08-1.57.17Z"/><path class="uuid-57440bbd-ab37-4989-b45d-6a0cec631434" d="m101.02,78.55c.47.2,1.07.17,1.57-.2.5-.37.76-1,.7-1.6-.49-.19-1.08-.05-1.54.35-.23.2-.42.44-.53.68-.11.25-.19.51-.19.76Z"/><path class="uuid-57440bbd-ab37-4989-b45d-6a0cec631434" d="m98.05,79.79c0,.11.02.21.06.32.04.11.09.21.16.32.13.21.33.41.59.59.5.35,1.12.49,1.64.33.01-.13,0-.26-.03-.4-.03-.13-.07-.26-.14-.38-.14-.24-.35-.46-.61-.62-.55-.32-1.18-.32-1.67-.16Z"/><path class="uuid-57440bbd-ab37-4989-b45d-6a0cec631434" d="m100.9,81.4c.44.31,1.06.41,1.67.14.3-.14.55-.36.73-.62.09-.13.16-.28.22-.43.05-.15.1-.31.11-.47-.47-.3-1.11-.28-1.67.04-.29.16-.53.37-.7.6-.09.12-.17.24-.23.36-.06.13-.1.26-.13.39Z"/><path class="uuid-57440bbd-ab37-4989-b45d-6a0cec631434" d="m97.6,81.9c-.02.11-.02.22,0,.34,0,.06.02.12.04.18.02.06.03.12.06.18.09.24.27.49.48.72.45.47,1.05.75,1.62.7.09-.26.07-.56-.01-.84-.04-.14-.11-.28-.19-.41-.08-.13-.19-.25-.31-.36-.24-.22-.54-.36-.83-.45-.29-.08-.59-.1-.86-.07Z"/><path class="uuid-57440bbd-ab37-4989-b45d-6a0cec631434" d="m100.2,84.16c.39.41,1.01.66,1.69.5.35-.08.64-.25.89-.49.06-.06.12-.12.18-.19.05-.07.1-.14.15-.21.09-.15.16-.3.21-.47-.21-.21-.49-.34-.78-.39-.3-.05-.62-.02-.95.08-.16.05-.32.12-.46.2-.14.08-.27.17-.39.27-.24.2-.41.44-.53.7Z"/><path class="uuid-57440bbd-ab37-4989-b45d-6a0cec631434" d="m96.75,83.85c-.04.11-.06.22-.07.34,0,.03,0,.06,0,.09,0,.03,0,.06,0,.09,0,.06.01.13.02.2.02.13.07.27.13.42.05.14.13.28.22.43.36.58.93,1,1.51,1.07.07-.13.12-.27.15-.41.03-.15.03-.3.02-.45-.02-.3-.15-.62-.36-.89-.21-.28-.47-.48-.76-.63-.28-.15-.58-.23-.87-.25Z"/><path class="uuid-57440bbd-ab37-4989-b45d-6a0cec631434" d="m98.94,86.73c.31.51.89.9,1.63.88.18,0,.37-.03.54-.09.17-.05.34-.13.49-.23.08-.05.15-.1.22-.16.04-.03.07-.06.1-.09.03-.03.06-.06.09-.1.12-.13.23-.28.32-.44-.17-.26-.42-.45-.72-.57-.3-.12-.64-.16-1-.12-.36.04-.68.15-.97.31-.14.08-.27.17-.39.27-.12.1-.23.21-.31.33Z"/><path class="uuid-57440bbd-ab37-4989-b45d-6a0cec631434" d="m95.54,85.56c-.06.1-.11.21-.14.34-.03.12-.05.25-.05.4,0,.14.02.3.04.45.03.16.07.32.13.49.25.67.74,1.23,1.32,1.42.1-.12.18-.25.24-.39.06-.14.1-.3.12-.46.02-.16.02-.32-.02-.49-.03-.17-.08-.34-.16-.5-.31-.65-.91-1.08-1.49-1.25Z"/><path class="uuid-57440bbd-ab37-4989-b45d-6a0cec631434" d="m97.17,88.97c.21.59.72,1.12,1.48,1.26.19.03.38.04.57.02.19-.02.37-.07.55-.13.18-.07.35-.16.51-.27.15-.11.3-.24.42-.39-.24-.61-.87-1-1.63-1.07-.19-.02-.37-.02-.55,0-.18.02-.35.05-.52.1-.16.05-.31.12-.46.2-.14.08-.28.17-.39.27Z"/><path class="uuid-57440bbd-ab37-4989-b45d-6a0cec631434" d="m98.46,71.66c.04-.1.07-.22.08-.33.01-.12,0-.24-.02-.36-.02-.12-.06-.24-.12-.36-.05-.12-.12-.24-.22-.34-.09-.11-.19-.2-.29-.27-.05-.04-.11-.07-.16-.1-.06-.03-.11-.05-.17-.07-.23-.08-.47-.11-.69-.06-.05.22-.04.46.02.68.02.06.03.11.06.17.02.05.04.11.07.16.05.11.12.21.2.31.08.09.17.18.26.26.09.07.2.13.3.18.11.05.21.09.33.11.11.03.22.04.34.03Z"/><path class="uuid-57440bbd-ab37-4989-b45d-6a0cec631434" d="m59.28,70.84c-.13.23-.2.49-.2.76,0,.27.06.53.2.77.28.48.76.71,1.2.72.18-.41.16-.94-.08-1.43-.24-.49-.67-.8-1.13-.82Z"/><path class="uuid-57440bbd-ab37-4989-b45d-6a0cec631434" d="m60.78,73.25c.27.36.76.57,1.28.57.26,0,.5-.04.69-.12.19-.09.36-.2.47-.35-.26-.35-.7-.65-1.22-.68-.53-.04-.99.2-1.22.58Z"/><path class="uuid-57440bbd-ab37-4989-b45d-6a0cec631434" d="m57.7,73.65c-.04.13-.07.27-.08.41,0,.14,0,.29.04.43.03.14.07.28.14.4.06.13.15.25.25.36.39.44.94.58,1.41.49.02-.12.03-.24.03-.36,0-.12-.02-.25-.05-.38-.03-.13-.08-.25-.14-.38-.06-.12-.13-.24-.22-.36-.36-.46-.87-.7-1.36-.62Z"/><path class="uuid-57440bbd-ab37-4989-b45d-6a0cec631434" d="m59.8,75.84c.36.31.92.42,1.46.31.14-.03.26-.07.37-.11.12-.05.22-.1.32-.16.09-.06.17-.13.24-.21.07-.08.13-.16.17-.24-.34-.31-.87-.52-1.42-.45-.14.02-.27.05-.39.1-.12.05-.23.12-.33.19-.1.08-.18.16-.26.26-.07.1-.12.2-.16.31Z"/><path class="uuid-57440bbd-ab37-4989-b45d-6a0cec631434" d="m56.72,76.75c-.07.6.19,1.24.7,1.6.5.37,1.1.39,1.57.2,0-.25-.07-.52-.19-.76-.12-.25-.31-.49-.53-.68-.46-.4-1.05-.54-1.54-.35Z"/><path class="uuid-57440bbd-ab37-4989-b45d-6a0cec631434" d="m59.36,78.57c.44.25,1.04.24,1.58,0,.54-.23.89-.6.99-.99-.42-.25-1.01-.36-1.57-.17-.29.09-.51.26-.69.46-.18.2-.28.44-.31.69Z"/><path class="uuid-57440bbd-ab37-4989-b45d-6a0cec631434" d="m56.37,80.01c0,.16.05.32.11.47.06.15.13.3.22.43.19.27.44.49.73.62.6.28,1.23.17,1.67-.14-.03-.13-.07-.26-.13-.39-.06-.13-.14-.25-.23-.36-.17-.23-.41-.44-.7-.6-.56-.32-1.2-.34-1.67-.04Z"/><path class="uuid-57440bbd-ab37-4989-b45d-6a0cec631434" d="m59.5,81.34c.52.16,1.13.02,1.64-.33.26-.17.46-.38.59-.59.07-.1.13-.21.16-.32.04-.11.05-.21.06-.32-.49-.17-1.12-.16-1.67.16-.27.16-.47.37-.61.62-.07.12-.11.25-.14.38-.03.13-.04.27-.03.4Z"/><path class="uuid-57440bbd-ab37-4989-b45d-6a0cec631434" d="m56.68,83.31c.05.16.12.32.21.47.04.07.09.14.15.21.05.07.11.13.18.19.25.24.55.42.89.49.68.16,1.3-.09,1.69-.5-.12-.26-.29-.5-.53-.7-.12-.1-.25-.19-.39-.27-.14-.08-.3-.15-.46-.2-.33-.1-.65-.13-.95-.08-.3.05-.57.18-.78.39Z"/><path class="uuid-57440bbd-ab37-4989-b45d-6a0cec631434" d="m60.2,84.02c.56.05,1.17-.23,1.62-.7.22-.23.39-.48.48-.72.02-.06.04-.12.06-.18.02-.06.03-.12.04-.18.02-.12.02-.23,0-.34-.27-.03-.56-.01-.86.07-.29.08-.59.23-.83.45-.12.11-.22.23-.31.36-.08.13-.15.27-.19.41-.08.28-.1.58-.01.84Z"/><path class="uuid-57440bbd-ab37-4989-b45d-6a0cec631434" d="m57.66,86.5c.09.16.2.31.32.44.03.03.06.07.09.1.03.03.07.06.1.09.07.06.15.11.22.16.15.1.32.18.49.23.18.05.36.08.54.09.73.02,1.32-.37,1.63-.88-.09-.12-.19-.23-.31-.33-.11-.1-.24-.19-.39-.27-.29-.15-.61-.27-.97-.31-.36-.04-.71,0-1,.12-.3.12-.55.31-.72.57Z"/><path class="uuid-57440bbd-ab37-4989-b45d-6a0cec631434" d="m61.44,86.49c.59-.07,1.15-.49,1.51-1.07.09-.14.16-.29.22-.43.06-.14.1-.28.13-.42.01-.07.02-.13.02-.2,0-.03,0-.06,0-.09,0-.03,0-.06,0-.09,0-.12-.03-.24-.07-.34-.29.03-.59.11-.87.25-.29.15-.55.35-.76.63-.2.28-.33.59-.36.89-.01.15,0,.31.02.45.03.14.08.28.15.41Z"/><path class="uuid-57440bbd-ab37-4989-b45d-6a0cec631434" d="m59.28,89.46c.12.15.27.28.42.39.16.11.33.2.51.27.18.07.36.12.55.13.19.02.38,0,.57-.02.76-.14,1.27-.67,1.48-1.26-.12-.11-.25-.2-.39-.27-.14-.08-.29-.15-.46-.2-.16-.05-.34-.08-.52-.1-.18-.02-.36-.02-.55,0-.76.07-1.39.46-1.63,1.07Z"/><path class="uuid-57440bbd-ab37-4989-b45d-6a0cec631434" d="m63.16,88.65c.59-.2,1.07-.75,1.32-1.42.06-.17.11-.33.13-.49.03-.15.04-.31.04-.45,0-.14-.02-.27-.05-.4-.03-.12-.08-.24-.14-.34-.57.18-1.18.6-1.49,1.25-.08.16-.13.33-.16.5-.03.17-.03.33-.02.49.02.16.05.32.12.46.06.14.14.27.24.39Z"/><path class="uuid-57440bbd-ab37-4989-b45d-6a0cec631434" d="m61.54,71.66c.11,0,.23,0,.34-.03.11-.02.22-.06.33-.11.11-.05.21-.11.3-.18.09-.07.18-.16.26-.26.08-.1.15-.2.2-.31.03-.05.05-.11.07-.16.02-.05.04-.11.06-.17.06-.22.07-.46.02-.68-.22-.04-.45-.02-.69.06-.06.02-.12.05-.17.07-.06.03-.11.06-.16.1-.1.08-.2.17-.29.27-.09.1-.16.22-.22.34-.05.12-.09.24-.12.36-.02.12-.03.24-.02.36.01.12.04.23.08.33Z"/></svg>