<svg width="32" height="32" viewBox="0 0 32 32" fill="none" xmlns="http://www.w3.org/2000/svg">
<g clip-path="url(#clip0_295_46)">
<path fill-rule="evenodd" clip-rule="evenodd" d="M16 0C7.168 0 0 7.168 0 16C0 24.832 7.168 32 16 32C24.832 32 32 24.832 32 16C32 7.168 24.832 0 16 0ZM11.92 23.536H8.304V12.64H11.92V23.536ZM10.112 11.152H10.096C8.88 11.152 8.096 10.32 8.096 9.264C8.096 8.192 8.912 7.376 10.144 7.376C11.376 7.376 12.144 8.192 12.176 9.264C12.16 10.32 11.376 11.152 10.112 11.152ZM24.976 23.536H21.36V17.712C21.36 16.256 20.832 15.248 19.52 15.248C18.512 15.248 17.92 15.92 17.664 16.576C17.568 16.816 17.552 17.136 17.552 17.456V23.536H13.92C13.92 23.536 13.92 23.504 13.92 23.456V23.216C13.92 22.336 13.936 19.792 13.936 17.424V16.592C13.936 16.176 13.936 15.792 13.936 15.408V14.688C13.936 13.664 13.92 12.896 13.92 12.64H17.536V14.176C18.016 13.44 18.88 12.384 20.8 12.384C23.184 12.384 24.976 13.936 24.976 17.28V23.536Z" fill="black"/>
</g>
<defs>
<clipPath id="clip0_295_46">
<rect width="32" height="32" fill="white"/>
</clipPath>
</defs>
</svg>
